<mxfile host="Electron" agent="Mozilla/5.0 (Windows NT 10.0; Win64; x64) AppleWebKit/537.36 (KHTML, like Gecko) draw.io/24.7.8 Chrome/128.0.6613.36 Electron/32.0.1 Safari/537.36" version="24.7.8">
  <diagram name="Page-1" id="fVgkeCAuQ02N6W5tfTjS">
    <mxGraphModel dx="1884" dy="1611" grid="1" gridSize="10" guides="1" tooltips="1" connect="1" arrows="1" fold="1" page="1" pageScale="1" pageWidth="850" pageHeight="1100" math="0" shadow="0">
      <root>
        <mxCell id="0" />
        <mxCell id="1" parent="0" />
        <mxCell id="B9i8zO1DClTU-1D5Rl1U-23" style="edgeStyle=orthogonalEdgeStyle;rounded=0;orthogonalLoop=1;jettySize=auto;html=1;exitX=0.25;exitY=0;exitDx=0;exitDy=0;entryX=0.5;entryY=1;entryDx=0;entryDy=0;endArrow=none;endFill=0;" parent="1" source="B9i8zO1DClTU-1D5Rl1U-1" target="B9i8zO1DClTU-1D5Rl1U-17" edge="1">
          <mxGeometry relative="1" as="geometry" />
        </mxCell>
        <mxCell id="B9i8zO1DClTU-1D5Rl1U-1" value="Guest" style="whiteSpace=wrap;html=1;align=center;" parent="1" vertex="1">
          <mxGeometry x="375" y="110" width="100" height="40" as="geometry" />
        </mxCell>
        <mxCell id="B9i8zO1DClTU-1D5Rl1U-5" style="edgeStyle=orthogonalEdgeStyle;rounded=0;orthogonalLoop=1;jettySize=auto;html=1;exitX=0.5;exitY=1;exitDx=0;exitDy=0;entryX=0.5;entryY=0;entryDx=0;entryDy=0;flowAnimation=0;endArrow=none;endFill=0;" parent="1" source="B9i8zO1DClTU-1D5Rl1U-2" target="B9i8zO1DClTU-1D5Rl1U-1" edge="1">
          <mxGeometry relative="1" as="geometry" />
        </mxCell>
        <mxCell id="B9i8zO1DClTU-1D5Rl1U-2" value="guest_id" style="ellipse;whiteSpace=wrap;html=1;align=center;fontStyle=4;" parent="1" vertex="1">
          <mxGeometry x="375" y="30" width="100" height="40" as="geometry" />
        </mxCell>
        <mxCell id="B9i8zO1DClTU-1D5Rl1U-6" value="Reservation" style="shape=ext;margin=3;double=1;whiteSpace=wrap;html=1;align=center;" parent="1" vertex="1">
          <mxGeometry x="780" y="110" width="100" height="40" as="geometry" />
        </mxCell>
        <mxCell id="B9i8zO1DClTU-1D5Rl1U-42" value="" style="edgeStyle=orthogonalEdgeStyle;rounded=0;orthogonalLoop=1;jettySize=auto;html=1;endArrow=ERone;endFill=0;" parent="1" source="B9i8zO1DClTU-1D5Rl1U-7" target="B9i8zO1DClTU-1D5Rl1U-1" edge="1">
          <mxGeometry relative="1" as="geometry" />
        </mxCell>
        <mxCell id="B9i8zO1DClTU-1D5Rl1U-7" value="make" style="shape=rhombus;perimeter=rhombusPerimeter;whiteSpace=wrap;html=1;align=center;" parent="1" vertex="1">
          <mxGeometry x="520" y="100" width="120" height="60" as="geometry" />
        </mxCell>
        <mxCell id="B9i8zO1DClTU-1D5Rl1U-14" style="edgeStyle=orthogonalEdgeStyle;rounded=0;orthogonalLoop=1;jettySize=auto;html=1;exitX=0.5;exitY=1;exitDx=0;exitDy=0;entryX=0.75;entryY=0;entryDx=0;entryDy=0;endArrow=none;endFill=0;" parent="1" source="B9i8zO1DClTU-1D5Rl1U-13" target="B9i8zO1DClTU-1D5Rl1U-1" edge="1">
          <mxGeometry relative="1" as="geometry">
            <Array as="points">
              <mxPoint x="540" y="90" />
              <mxPoint x="450" y="90" />
            </Array>
          </mxGeometry>
        </mxCell>
        <mxCell id="B9i8zO1DClTU-1D5Rl1U-13" value="profile" style="ellipse;whiteSpace=wrap;html=1;align=center;" parent="1" vertex="1">
          <mxGeometry x="490" y="30" width="100" height="40" as="geometry" />
        </mxCell>
        <mxCell id="B9i8zO1DClTU-1D5Rl1U-24" style="edgeStyle=orthogonalEdgeStyle;rounded=0;orthogonalLoop=1;jettySize=auto;html=1;exitX=0.5;exitY=1;exitDx=0;exitDy=0;endArrow=none;endFill=0;" parent="1" source="B9i8zO1DClTU-1D5Rl1U-15" edge="1">
          <mxGeometry relative="1" as="geometry">
            <mxPoint x="309.9310344827586" y="90" as="targetPoint" />
          </mxGeometry>
        </mxCell>
        <mxCell id="B9i8zO1DClTU-1D5Rl1U-15" value="name" style="ellipse;whiteSpace=wrap;html=1;align=center;" parent="1" vertex="1">
          <mxGeometry x="260" y="30" width="100" height="40" as="geometry" />
        </mxCell>
        <mxCell id="B9i8zO1DClTU-1D5Rl1U-17" value="date of birth" style="ellipse;whiteSpace=wrap;html=1;align=center;" parent="1" vertex="1">
          <mxGeometry x="150" y="30" width="100" height="40" as="geometry" />
        </mxCell>
        <mxCell id="B9i8zO1DClTU-1D5Rl1U-26" style="edgeStyle=orthogonalEdgeStyle;rounded=0;orthogonalLoop=1;jettySize=auto;html=1;endArrow=none;endFill=0;" parent="1" source="B9i8zO1DClTU-1D5Rl1U-25" edge="1">
          <mxGeometry relative="1" as="geometry">
            <mxPoint x="480" y="89.99999999999977" as="targetPoint" />
          </mxGeometry>
        </mxCell>
        <mxCell id="B9i8zO1DClTU-1D5Rl1U-25" value="email" style="ellipse;whiteSpace=wrap;html=1;align=center;" parent="1" vertex="1">
          <mxGeometry x="430" y="-30" width="100" height="40" as="geometry" />
        </mxCell>
        <mxCell id="B9i8zO1DClTU-1D5Rl1U-29" style="edgeStyle=orthogonalEdgeStyle;rounded=0;orthogonalLoop=1;jettySize=auto;html=1;endArrow=none;endFill=0;" parent="1" source="B9i8zO1DClTU-1D5Rl1U-27" edge="1">
          <mxGeometry relative="1" as="geometry">
            <mxPoint x="370" y="90" as="targetPoint" />
          </mxGeometry>
        </mxCell>
        <mxCell id="B9i8zO1DClTU-1D5Rl1U-27" value="address" style="ellipse;whiteSpace=wrap;html=1;align=center;" parent="1" vertex="1">
          <mxGeometry x="320" y="-30" width="100" height="40" as="geometry" />
        </mxCell>
        <mxCell id="B9i8zO1DClTU-1D5Rl1U-32" style="edgeStyle=orthogonalEdgeStyle;rounded=0;orthogonalLoop=1;jettySize=auto;html=1;endArrow=none;endFill=0;" parent="1" source="B9i8zO1DClTU-1D5Rl1U-31" edge="1">
          <mxGeometry relative="1" as="geometry">
            <mxPoint x="260" y="89.99999999999977" as="targetPoint" />
          </mxGeometry>
        </mxCell>
        <mxCell id="B9i8zO1DClTU-1D5Rl1U-31" value="phone number" style="ellipse;whiteSpace=wrap;html=1;align=center;" parent="1" vertex="1">
          <mxGeometry x="210" y="-30" width="100" height="40" as="geometry" />
        </mxCell>
        <mxCell id="B9i8zO1DClTU-1D5Rl1U-34" value="Rewards Program" style="shape=ext;margin=3;double=1;whiteSpace=wrap;html=1;align=center;" parent="1" vertex="1">
          <mxGeometry x="50" y="110" width="100" height="40" as="geometry" />
        </mxCell>
        <mxCell id="B9i8zO1DClTU-1D5Rl1U-35" value="enroll in" style="shape=rhombus;perimeter=rhombusPerimeter;whiteSpace=wrap;html=1;align=center;" parent="1" vertex="1">
          <mxGeometry x="200" y="100" width="120" height="60" as="geometry" />
        </mxCell>
        <mxCell id="B9i8zO1DClTU-1D5Rl1U-38" value="" style="edgeStyle=entityRelationEdgeStyle;fontSize=12;html=1;endArrow=ERoneToMany;rounded=0;entryX=0;entryY=0.5;entryDx=0;entryDy=0;exitX=1;exitY=0.5;exitDx=0;exitDy=0;endFill=0;" parent="1" source="B9i8zO1DClTU-1D5Rl1U-7" target="B9i8zO1DClTU-1D5Rl1U-6" edge="1">
          <mxGeometry width="100" height="100" relative="1" as="geometry">
            <mxPoint x="580" y="290" as="sourcePoint" />
            <mxPoint x="680" y="190" as="targetPoint" />
          </mxGeometry>
        </mxCell>
        <mxCell id="B9i8zO1DClTU-1D5Rl1U-39" value="" style="edgeStyle=entityRelationEdgeStyle;fontSize=12;html=1;endArrow=ERone;endFill=0;rounded=0;entryX=0;entryY=0.5;entryDx=0;entryDy=0;exitX=1;exitY=0.5;exitDx=0;exitDy=0;" parent="1" source="B9i8zO1DClTU-1D5Rl1U-35" target="B9i8zO1DClTU-1D5Rl1U-1" edge="1">
          <mxGeometry width="100" height="100" relative="1" as="geometry">
            <mxPoint x="230" y="160" as="sourcePoint" />
            <mxPoint x="330" y="60" as="targetPoint" />
          </mxGeometry>
        </mxCell>
        <mxCell id="B9i8zO1DClTU-1D5Rl1U-40" value="" style="edgeStyle=entityRelationEdgeStyle;fontSize=12;html=1;endArrow=ERzeroToOne;rounded=0;entryX=1;entryY=0.5;entryDx=0;entryDy=0;exitX=0;exitY=0.5;exitDx=0;exitDy=0;endFill=0;" parent="1" source="B9i8zO1DClTU-1D5Rl1U-35" target="B9i8zO1DClTU-1D5Rl1U-34" edge="1">
          <mxGeometry width="100" height="100" relative="1" as="geometry">
            <mxPoint x="230" y="180" as="sourcePoint" />
            <mxPoint x="330" y="80" as="targetPoint" />
          </mxGeometry>
        </mxCell>
        <mxCell id="B9i8zO1DClTU-1D5Rl1U-54" style="edgeStyle=orthogonalEdgeStyle;rounded=0;orthogonalLoop=1;jettySize=auto;html=1;exitX=1;exitY=0.5;exitDx=0;exitDy=0;endArrow=none;endFill=0;" parent="1" source="B9i8zO1DClTU-1D5Rl1U-43" edge="1">
          <mxGeometry relative="1" as="geometry">
            <mxPoint x="810" y="279.9655172413793" as="targetPoint" />
          </mxGeometry>
        </mxCell>
        <mxCell id="B9i8zO1DClTU-1D5Rl1U-43" value="Room" style="whiteSpace=wrap;html=1;align=center;" parent="1" vertex="1">
          <mxGeometry x="680" y="260" width="100" height="40" as="geometry" />
        </mxCell>
        <mxCell id="B9i8zO1DClTU-1D5Rl1U-46" style="edgeStyle=orthogonalEdgeStyle;rounded=0;orthogonalLoop=1;jettySize=auto;html=1;exitX=0;exitY=0.5;exitDx=0;exitDy=0;entryX=1;entryY=0;entryDx=0;entryDy=0;endArrow=none;endFill=0;" parent="1" source="B9i8zO1DClTU-1D5Rl1U-44" target="B9i8zO1DClTU-1D5Rl1U-43" edge="1">
          <mxGeometry relative="1" as="geometry" />
        </mxCell>
        <mxCell id="B9i8zO1DClTU-1D5Rl1U-44" value="room_id" style="ellipse;whiteSpace=wrap;html=1;align=center;fontStyle=4;" parent="1" vertex="1">
          <mxGeometry x="800" y="220" width="100" height="40" as="geometry" />
        </mxCell>
        <mxCell id="B9i8zO1DClTU-1D5Rl1U-49" style="edgeStyle=orthogonalEdgeStyle;rounded=0;orthogonalLoop=1;jettySize=auto;html=1;exitX=0.5;exitY=1;exitDx=0;exitDy=0;entryX=0.5;entryY=0;entryDx=0;entryDy=0;endArrow=ERone;endFill=0;" parent="1" source="B9i8zO1DClTU-1D5Rl1U-47" target="B9i8zO1DClTU-1D5Rl1U-43" edge="1">
          <mxGeometry relative="1" as="geometry" />
        </mxCell>
        <mxCell id="B9i8zO1DClTU-1D5Rl1U-50" style="edgeStyle=orthogonalEdgeStyle;rounded=0;orthogonalLoop=1;jettySize=auto;html=1;exitX=0.5;exitY=0;exitDx=0;exitDy=0;entryX=0.5;entryY=1;entryDx=0;entryDy=0;endArrow=ERzeroToOne;endFill=0;" parent="1" source="B9i8zO1DClTU-1D5Rl1U-47" target="B9i8zO1DClTU-1D5Rl1U-6" edge="1">
          <mxGeometry relative="1" as="geometry" />
        </mxCell>
        <mxCell id="B9i8zO1DClTU-1D5Rl1U-47" value="can have" style="shape=rhombus;perimeter=rhombusPerimeter;whiteSpace=wrap;html=1;align=center;" parent="1" vertex="1">
          <mxGeometry x="695" y="200" width="110" height="40" as="geometry" />
        </mxCell>
        <mxCell id="B9i8zO1DClTU-1D5Rl1U-53" style="edgeStyle=orthogonalEdgeStyle;rounded=0;orthogonalLoop=1;jettySize=auto;html=1;exitX=0.5;exitY=1;exitDx=0;exitDy=0;entryX=0.5;entryY=0;entryDx=0;entryDy=0;endArrow=none;endFill=0;" parent="1" source="B9i8zO1DClTU-1D5Rl1U-52" target="B9i8zO1DClTU-1D5Rl1U-6" edge="1">
          <mxGeometry relative="1" as="geometry" />
        </mxCell>
        <mxCell id="B9i8zO1DClTU-1D5Rl1U-52" value="reservation_id" style="ellipse;whiteSpace=wrap;html=1;align=center;fontStyle=4;" parent="1" vertex="1">
          <mxGeometry x="780" y="30" width="100" height="40" as="geometry" />
        </mxCell>
        <mxCell id="B9i8zO1DClTU-1D5Rl1U-55" value="&lt;span style=&quot;border-bottom: 1px dotted&quot;&gt;reservation_id&lt;/span&gt;" style="ellipse;whiteSpace=wrap;html=1;align=center;" parent="1" vertex="1">
          <mxGeometry x="810" y="260" width="90" height="30" as="geometry" />
        </mxCell>
        <mxCell id="B9i8zO1DClTU-1D5Rl1U-58" value="room type" style="ellipse;whiteSpace=wrap;html=1;align=center;" parent="1" vertex="1">
          <mxGeometry x="800" y="310" width="100" height="40" as="geometry" />
        </mxCell>
        <mxCell id="B9i8zO1DClTU-1D5Rl1U-61" style="edgeStyle=orthogonalEdgeStyle;rounded=0;orthogonalLoop=1;jettySize=auto;html=1;exitX=0;exitY=0.5;exitDx=0;exitDy=0;entryX=0.874;entryY=1.002;entryDx=0;entryDy=0;entryPerimeter=0;endArrow=none;endFill=0;" parent="1" source="B9i8zO1DClTU-1D5Rl1U-58" target="B9i8zO1DClTU-1D5Rl1U-43" edge="1">
          <mxGeometry relative="1" as="geometry" />
        </mxCell>
        <mxCell id="B9i8zO1DClTU-1D5Rl1U-62" value="Hotel Branch" style="whiteSpace=wrap;html=1;align=center;" parent="1" vertex="1">
          <mxGeometry x="330" y="300" width="100" height="40" as="geometry" />
        </mxCell>
        <mxCell id="B9i8zO1DClTU-1D5Rl1U-65" style="edgeStyle=orthogonalEdgeStyle;rounded=0;orthogonalLoop=1;jettySize=auto;html=1;exitX=1;exitY=0.5;exitDx=0;exitDy=0;entryX=0;entryY=0.5;entryDx=0;entryDy=0;endArrow=ERmany;endFill=0;" parent="1" source="B9i8zO1DClTU-1D5Rl1U-63" target="B9i8zO1DClTU-1D5Rl1U-43" edge="1">
          <mxGeometry relative="1" as="geometry" />
        </mxCell>
        <mxCell id="B9i8zO1DClTU-1D5Rl1U-66" value="" style="edgeStyle=orthogonalEdgeStyle;rounded=0;orthogonalLoop=1;jettySize=auto;html=1;endArrow=ERone;endFill=0;" parent="1" source="B9i8zO1DClTU-1D5Rl1U-63" target="B9i8zO1DClTU-1D5Rl1U-62" edge="1">
          <mxGeometry relative="1" as="geometry" />
        </mxCell>
        <mxCell id="B9i8zO1DClTU-1D5Rl1U-63" value="belongs to" style="shape=rhombus;perimeter=rhombusPerimeter;whiteSpace=wrap;html=1;align=center;" parent="1" vertex="1">
          <mxGeometry x="500" y="250" width="120" height="60" as="geometry" />
        </mxCell>
        <mxCell id="B9i8zO1DClTU-1D5Rl1U-67" value="Hotel Amenities" style="whiteSpace=wrap;html=1;align=center;" parent="1" vertex="1">
          <mxGeometry x="310" y="470" width="100" height="40" as="geometry" />
        </mxCell>
        <mxCell id="B9i8zO1DClTU-1D5Rl1U-70" value="" style="edgeStyle=orthogonalEdgeStyle;rounded=0;orthogonalLoop=1;jettySize=auto;html=1;endArrow=ERzeroToMany;endFill=0;" parent="1" source="B9i8zO1DClTU-1D5Rl1U-68" target="B9i8zO1DClTU-1D5Rl1U-67" edge="1">
          <mxGeometry relative="1" as="geometry" />
        </mxCell>
        <mxCell id="B9i8zO1DClTU-1D5Rl1U-72" value="" style="edgeStyle=orthogonalEdgeStyle;rounded=0;orthogonalLoop=1;jettySize=auto;html=1;endArrow=ERzeroToMany;endFill=0;" parent="1" source="B9i8zO1DClTU-1D5Rl1U-68" target="B9i8zO1DClTU-1D5Rl1U-62" edge="1">
          <mxGeometry relative="1" as="geometry" />
        </mxCell>
        <mxCell id="B9i8zO1DClTU-1D5Rl1U-68" value="offers" style="shape=associativeEntity;whiteSpace=wrap;html=1;align=center;" parent="1" vertex="1">
          <mxGeometry x="300" y="370" width="110" height="50" as="geometry" />
        </mxCell>
        <mxCell id="JJHZLOXNKfBxK5Ap1BSC-24" style="edgeStyle=orthogonalEdgeStyle;rounded=0;orthogonalLoop=1;jettySize=auto;html=1;exitX=0.75;exitY=1;exitDx=0;exitDy=0;endArrow=none;endFill=0;" parent="1" source="mOBhRHJ4F4w7F-7LLjBb-1" edge="1">
          <mxGeometry relative="1" as="geometry">
            <mxPoint x="780" y="550" as="targetPoint" />
          </mxGeometry>
        </mxCell>
        <mxCell id="Phorr9IZyZ9SOU1izLDo-6" style="edgeStyle=orthogonalEdgeStyle;rounded=0;orthogonalLoop=1;jettySize=auto;html=1;exitX=0;exitY=0.75;exitDx=0;exitDy=0;entryX=0.5;entryY=0;entryDx=0;entryDy=0;endArrow=none;endFill=0;" parent="1" source="mOBhRHJ4F4w7F-7LLjBb-1" target="Phorr9IZyZ9SOU1izLDo-5" edge="1">
          <mxGeometry relative="1" as="geometry">
            <Array as="points">
              <mxPoint x="640" y="500" />
              <mxPoint x="573" y="500" />
            </Array>
          </mxGeometry>
        </mxCell>
        <mxCell id="mOBhRHJ4F4w7F-7LLjBb-1" value="Employee" style="whiteSpace=wrap;html=1;align=center;" parent="1" vertex="1">
          <mxGeometry x="640" y="460" width="100" height="40" as="geometry" />
        </mxCell>
        <mxCell id="mOBhRHJ4F4w7F-7LLjBb-4" value="" style="edgeStyle=orthogonalEdgeStyle;rounded=0;orthogonalLoop=1;jettySize=auto;html=1;endArrow=none;endFill=0;" parent="1" source="mOBhRHJ4F4w7F-7LLjBb-3" target="mOBhRHJ4F4w7F-7LLjBb-1" edge="1">
          <mxGeometry relative="1" as="geometry" />
        </mxCell>
        <mxCell id="mOBhRHJ4F4w7F-7LLjBb-3" value="employee_id" style="ellipse;whiteSpace=wrap;html=1;align=center;fontStyle=4;" parent="1" vertex="1">
          <mxGeometry x="670" y="530" width="80" height="30" as="geometry" />
        </mxCell>
        <mxCell id="mOBhRHJ4F4w7F-7LLjBb-5" value="Employee Role" style="shape=ext;margin=3;double=1;whiteSpace=wrap;html=1;align=center;" parent="1" vertex="1">
          <mxGeometry x="970" y="450" width="100" height="40" as="geometry" />
        </mxCell>
        <mxCell id="mOBhRHJ4F4w7F-7LLjBb-8" value="" style="edgeStyle=orthogonalEdgeStyle;rounded=0;orthogonalLoop=1;jettySize=auto;html=1;endArrow=none;endFill=0;" parent="1" source="mOBhRHJ4F4w7F-7LLjBb-6" target="mOBhRHJ4F4w7F-7LLjBb-5" edge="1">
          <mxGeometry relative="1" as="geometry" />
        </mxCell>
        <mxCell id="mOBhRHJ4F4w7F-7LLjBb-6" value="role_id" style="ellipse;whiteSpace=wrap;html=1;align=center;fontStyle=4;" parent="1" vertex="1">
          <mxGeometry x="970" y="530" width="100" height="40" as="geometry" />
        </mxCell>
        <mxCell id="mOBhRHJ4F4w7F-7LLjBb-10" value="" style="edgeStyle=orthogonalEdgeStyle;rounded=0;orthogonalLoop=1;jettySize=auto;html=1;endArrow=ERoneToMany;endFill=0;" parent="1" source="mOBhRHJ4F4w7F-7LLjBb-7" target="mOBhRHJ4F4w7F-7LLjBb-1" edge="1">
          <mxGeometry relative="1" as="geometry" />
        </mxCell>
        <mxCell id="mOBhRHJ4F4w7F-7LLjBb-11" value="" style="edgeStyle=orthogonalEdgeStyle;rounded=0;orthogonalLoop=1;jettySize=auto;html=1;endArrow=ERoneToMany;endFill=0;" parent="1" source="mOBhRHJ4F4w7F-7LLjBb-7" target="mOBhRHJ4F4w7F-7LLjBb-5" edge="1">
          <mxGeometry relative="1" as="geometry" />
        </mxCell>
        <mxCell id="vKug7fDAOGzfk_ScSwMf-89" style="edgeStyle=orthogonalEdgeStyle;rounded=0;orthogonalLoop=1;jettySize=auto;html=1;exitX=1;exitY=0;exitDx=0;exitDy=0;entryX=0;entryY=0.5;entryDx=0;entryDy=0;endArrow=none;endFill=0;" parent="1" source="mOBhRHJ4F4w7F-7LLjBb-7" target="vKug7fDAOGzfk_ScSwMf-86" edge="1">
          <mxGeometry relative="1" as="geometry" />
        </mxCell>
        <mxCell id="mOBhRHJ4F4w7F-7LLjBb-7" value="Has role" style="shape=associativeEntity;whiteSpace=wrap;html=1;align=center;" parent="1" vertex="1">
          <mxGeometry x="810" y="450" width="100" height="40" as="geometry" />
        </mxCell>
        <mxCell id="mOBhRHJ4F4w7F-7LLjBb-15" style="edgeStyle=orthogonalEdgeStyle;rounded=0;orthogonalLoop=1;jettySize=auto;html=1;exitX=0.5;exitY=1;exitDx=0;exitDy=0;entryX=0;entryY=0.5;entryDx=0;entryDy=0;endArrow=ERone;endFill=0;" parent="1" source="mOBhRHJ4F4w7F-7LLjBb-13" target="mOBhRHJ4F4w7F-7LLjBb-1" edge="1">
          <mxGeometry relative="1" as="geometry" />
        </mxCell>
        <mxCell id="mOBhRHJ4F4w7F-7LLjBb-16" style="edgeStyle=orthogonalEdgeStyle;rounded=0;orthogonalLoop=1;jettySize=auto;html=1;exitX=0.5;exitY=0;exitDx=0;exitDy=0;entryX=0.75;entryY=1;entryDx=0;entryDy=0;endArrow=ERmany;endFill=0;" parent="1" source="mOBhRHJ4F4w7F-7LLjBb-13" target="B9i8zO1DClTU-1D5Rl1U-62" edge="1">
          <mxGeometry relative="1" as="geometry" />
        </mxCell>
        <mxCell id="mOBhRHJ4F4w7F-7LLjBb-13" value="belongs to" style="shape=rhombus;perimeter=rhombusPerimeter;whiteSpace=wrap;html=1;align=center;" parent="1" vertex="1">
          <mxGeometry x="475" y="360" width="120" height="60" as="geometry" />
        </mxCell>
        <mxCell id="mOBhRHJ4F4w7F-7LLjBb-18" style="edgeStyle=orthogonalEdgeStyle;rounded=0;orthogonalLoop=1;jettySize=auto;html=1;exitX=0.5;exitY=0;exitDx=0;exitDy=0;entryX=0.75;entryY=1;entryDx=0;entryDy=0;endArrow=none;endFill=0;" parent="1" source="mOBhRHJ4F4w7F-7LLjBb-17" target="mOBhRHJ4F4w7F-7LLjBb-5" edge="1">
          <mxGeometry relative="1" as="geometry" />
        </mxCell>
        <mxCell id="mOBhRHJ4F4w7F-7LLjBb-17" value="salary" style="ellipse;whiteSpace=wrap;html=1;align=center;" parent="1" vertex="1">
          <mxGeometry x="1080" y="530" width="100" height="40" as="geometry" />
        </mxCell>
        <mxCell id="mOBhRHJ4F4w7F-7LLjBb-20" style="edgeStyle=orthogonalEdgeStyle;rounded=0;orthogonalLoop=1;jettySize=auto;html=1;exitX=0.5;exitY=0;exitDx=0;exitDy=0;entryX=0.25;entryY=1;entryDx=0;entryDy=0;endArrow=none;endFill=0;" parent="1" source="mOBhRHJ4F4w7F-7LLjBb-19" target="mOBhRHJ4F4w7F-7LLjBb-5" edge="1">
          <mxGeometry relative="1" as="geometry" />
        </mxCell>
        <mxCell id="mOBhRHJ4F4w7F-7LLjBb-19" value="name" style="ellipse;whiteSpace=wrap;html=1;align=center;" parent="1" vertex="1">
          <mxGeometry x="860" y="530" width="100" height="40" as="geometry" />
        </mxCell>
        <mxCell id="511yjethqVCvW-9Xqfhx-40" style="edgeStyle=orthogonalEdgeStyle;rounded=0;orthogonalLoop=1;jettySize=auto;html=1;exitX=0.75;exitY=0;exitDx=0;exitDy=0;entryX=0;entryY=0.5;entryDx=0;entryDy=0;endArrow=none;endFill=0;" parent="1" source="JJHZLOXNKfBxK5Ap1BSC-2" target="511yjethqVCvW-9Xqfhx-34" edge="1">
          <mxGeometry relative="1" as="geometry" />
        </mxCell>
        <mxCell id="JJHZLOXNKfBxK5Ap1BSC-2" value="Minibar" style="shape=ext;margin=3;double=1;whiteSpace=wrap;html=1;align=center;" parent="1" vertex="1">
          <mxGeometry x="970" y="350" width="100" height="40" as="geometry" />
        </mxCell>
        <mxCell id="JJHZLOXNKfBxK5Ap1BSC-8" style="edgeStyle=orthogonalEdgeStyle;rounded=0;orthogonalLoop=1;jettySize=auto;html=1;exitX=1;exitY=0.5;exitDx=0;exitDy=0;entryX=0;entryY=0.5;entryDx=0;entryDy=0;endArrow=ERzeroToOne;endFill=0;" parent="1" source="JJHZLOXNKfBxK5Ap1BSC-5" target="JJHZLOXNKfBxK5Ap1BSC-2" edge="1">
          <mxGeometry relative="1" as="geometry" />
        </mxCell>
        <mxCell id="JJHZLOXNKfBxK5Ap1BSC-5" value="has" style="shape=rhombus;perimeter=rhombusPerimeter;whiteSpace=wrap;html=1;align=center;" parent="1" vertex="1">
          <mxGeometry x="740" y="350" width="90" height="40" as="geometry" />
        </mxCell>
        <mxCell id="JJHZLOXNKfBxK5Ap1BSC-9" style="edgeStyle=orthogonalEdgeStyle;rounded=0;orthogonalLoop=1;jettySize=auto;html=1;exitX=0;exitY=0.5;exitDx=0;exitDy=0;entryX=0.368;entryY=1.03;entryDx=0;entryDy=0;entryPerimeter=0;endArrow=ERone;endFill=0;" parent="1" source="JJHZLOXNKfBxK5Ap1BSC-5" target="B9i8zO1DClTU-1D5Rl1U-43" edge="1">
          <mxGeometry relative="1" as="geometry" />
        </mxCell>
        <mxCell id="JJHZLOXNKfBxK5Ap1BSC-22" style="edgeStyle=orthogonalEdgeStyle;rounded=0;orthogonalLoop=1;jettySize=auto;html=1;exitX=1;exitY=0.5;exitDx=0;exitDy=0;endArrow=ERone;endFill=0;entryX=0.5;entryY=0;entryDx=0;entryDy=0;" parent="1" source="JJHZLOXNKfBxK5Ap1BSC-11" target="JJHZLOXNKfBxK5Ap1BSC-23" edge="1">
          <mxGeometry relative="1" as="geometry">
            <mxPoint x="420" y="670" as="targetPoint" />
          </mxGeometry>
        </mxCell>
        <mxCell id="JJHZLOXNKfBxK5Ap1BSC-11" value="" style="triangle;whiteSpace=wrap;html=1;rotation=90;" parent="1" vertex="1">
          <mxGeometry x="390" y="550" width="60" height="80" as="geometry" />
        </mxCell>
        <mxCell id="JJHZLOXNKfBxK5Ap1BSC-15" style="edgeStyle=orthogonalEdgeStyle;rounded=0;orthogonalLoop=1;jettySize=auto;html=1;exitX=0.75;exitY=0;exitDx=0;exitDy=0;entryX=0.5;entryY=1;entryDx=0;entryDy=0;endArrow=ERzeroToOne;endFill=0;" parent="1" source="JJHZLOXNKfBxK5Ap1BSC-12" target="JJHZLOXNKfBxK5Ap1BSC-14" edge="1">
          <mxGeometry relative="1" as="geometry" />
        </mxCell>
        <mxCell id="JJHZLOXNKfBxK5Ap1BSC-21" style="edgeStyle=orthogonalEdgeStyle;rounded=0;orthogonalLoop=1;jettySize=auto;html=1;exitX=0.25;exitY=0;exitDx=0;exitDy=0;entryX=0.5;entryY=1;entryDx=0;entryDy=0;endArrow=ERzeroToOne;endFill=0;" parent="1" source="JJHZLOXNKfBxK5Ap1BSC-12" target="B9i8zO1DClTU-1D5Rl1U-67" edge="1">
          <mxGeometry relative="1" as="geometry" />
        </mxCell>
        <mxCell id="JJHZLOXNKfBxK5Ap1BSC-12" value="&lt;span style=&quot;font-size: 16px; font-weight: 400;&quot;&gt;ISA&lt;/span&gt;" style="text;strokeColor=none;fillColor=none;html=1;fontSize=24;fontStyle=1;verticalAlign=middle;align=center;" parent="1" vertex="1">
          <mxGeometry x="370" y="560" width="100" height="40" as="geometry" />
        </mxCell>
        <mxCell id="JJHZLOXNKfBxK5Ap1BSC-14" value="Room Amenities" style="whiteSpace=wrap;html=1;align=center;" parent="1" vertex="1">
          <mxGeometry x="430" y="470" width="100" height="40" as="geometry" />
        </mxCell>
        <mxCell id="JJHZLOXNKfBxK5Ap1BSC-20" style="edgeStyle=orthogonalEdgeStyle;rounded=0;orthogonalLoop=1;jettySize=auto;html=1;exitX=0;exitY=0.75;exitDx=0;exitDy=0;entryX=1;entryY=0.5;entryDx=0;entryDy=0;endArrow=ERzeroToMany;endFill=0;" parent="1" source="JJHZLOXNKfBxK5Ap1BSC-16" target="JJHZLOXNKfBxK5Ap1BSC-14" edge="1">
          <mxGeometry relative="1" as="geometry" />
        </mxCell>
        <mxCell id="JJHZLOXNKfBxK5Ap1BSC-16" value="has" style="shape=associativeEntity;whiteSpace=wrap;html=1;align=center;" parent="1" vertex="1">
          <mxGeometry x="640" y="390" width="70" height="40" as="geometry" />
        </mxCell>
        <mxCell id="JJHZLOXNKfBxK5Ap1BSC-17" style="edgeStyle=orthogonalEdgeStyle;rounded=0;orthogonalLoop=1;jettySize=auto;html=1;exitX=0.5;exitY=0;exitDx=0;exitDy=0;entryX=0.2;entryY=1;entryDx=0;entryDy=0;entryPerimeter=0;endArrow=ERzeroToMany;endFill=0;" parent="1" source="JJHZLOXNKfBxK5Ap1BSC-16" target="B9i8zO1DClTU-1D5Rl1U-43" edge="1">
          <mxGeometry relative="1" as="geometry" />
        </mxCell>
        <mxCell id="JJHZLOXNKfBxK5Ap1BSC-23" value="Amenities" style="whiteSpace=wrap;html=1;align=center;" parent="1" vertex="1">
          <mxGeometry x="370" y="650" width="100" height="40" as="geometry" />
        </mxCell>
        <mxCell id="JJHZLOXNKfBxK5Ap1BSC-27" value="name" style="ellipse;shape=doubleEllipse;margin=3;whiteSpace=wrap;html=1;align=center;" parent="1" vertex="1">
          <mxGeometry x="740" y="550" width="90" height="30" as="geometry" />
        </mxCell>
        <mxCell id="JJHZLOXNKfBxK5Ap1BSC-28" value="first name" style="ellipse;whiteSpace=wrap;html=1;align=center;" parent="1" vertex="1">
          <mxGeometry x="715" y="585" width="70" height="30" as="geometry" />
        </mxCell>
        <mxCell id="JJHZLOXNKfBxK5Ap1BSC-29" value="last name" style="ellipse;whiteSpace=wrap;html=1;align=center;" parent="1" vertex="1">
          <mxGeometry x="790" y="590" width="80" height="20" as="geometry" />
        </mxCell>
        <mxCell id="JJHZLOXNKfBxK5Ap1BSC-30" style="edgeStyle=orthogonalEdgeStyle;rounded=0;orthogonalLoop=1;jettySize=auto;html=1;exitX=0.5;exitY=0;exitDx=0;exitDy=0;entryX=0.084;entryY=0.757;entryDx=0;entryDy=0;entryPerimeter=0;endArrow=none;endFill=0;" parent="1" source="JJHZLOXNKfBxK5Ap1BSC-28" target="JJHZLOXNKfBxK5Ap1BSC-27" edge="1">
          <mxGeometry relative="1" as="geometry" />
        </mxCell>
        <mxCell id="JJHZLOXNKfBxK5Ap1BSC-34" style="edgeStyle=orthogonalEdgeStyle;rounded=0;orthogonalLoop=1;jettySize=auto;html=1;exitX=0.5;exitY=0;exitDx=0;exitDy=0;entryX=0.88;entryY=0.776;entryDx=0;entryDy=0;entryPerimeter=0;endArrow=none;endFill=0;" parent="1" source="JJHZLOXNKfBxK5Ap1BSC-29" target="JJHZLOXNKfBxK5Ap1BSC-27" edge="1">
          <mxGeometry relative="1" as="geometry" />
        </mxCell>
        <mxCell id="JJHZLOXNKfBxK5Ap1BSC-38" style="edgeStyle=orthogonalEdgeStyle;rounded=0;orthogonalLoop=1;jettySize=auto;html=1;exitX=0.5;exitY=0;exitDx=0;exitDy=0;entryX=0;entryY=1;entryDx=0;entryDy=0;endArrow=none;endFill=0;" parent="1" source="JJHZLOXNKfBxK5Ap1BSC-36" target="mOBhRHJ4F4w7F-7LLjBb-1" edge="1">
          <mxGeometry relative="1" as="geometry">
            <Array as="points">
              <mxPoint x="675" y="580" />
              <mxPoint x="640" y="580" />
            </Array>
          </mxGeometry>
        </mxCell>
        <mxCell id="JJHZLOXNKfBxK5Ap1BSC-36" value="hours worked" style="ellipse;whiteSpace=wrap;html=1;align=center;" parent="1" vertex="1">
          <mxGeometry x="660" y="615" width="80" height="35" as="geometry" />
        </mxCell>
        <mxCell id="JJHZLOXNKfBxK5Ap1BSC-41" style="edgeStyle=orthogonalEdgeStyle;rounded=0;orthogonalLoop=1;jettySize=auto;html=1;exitX=1;exitY=1;exitDx=0;exitDy=0;entryX=0;entryY=0.5;entryDx=0;entryDy=0;endArrow=none;endFill=0;" parent="1" source="JJHZLOXNKfBxK5Ap1BSC-40" target="B9i8zO1DClTU-1D5Rl1U-62" edge="1">
          <mxGeometry relative="1" as="geometry" />
        </mxCell>
        <mxCell id="JJHZLOXNKfBxK5Ap1BSC-40" value="hotel branch_id" style="ellipse;whiteSpace=wrap;html=1;align=center;fontStyle=4;" parent="1" vertex="1">
          <mxGeometry x="240" y="225" width="90" height="30" as="geometry" />
        </mxCell>
        <mxCell id="JJHZLOXNKfBxK5Ap1BSC-44" value="" style="edgeStyle=orthogonalEdgeStyle;rounded=0;orthogonalLoop=1;jettySize=auto;html=1;endArrow=none;endFill=0;" parent="1" source="JJHZLOXNKfBxK5Ap1BSC-43" target="B9i8zO1DClTU-1D5Rl1U-62" edge="1">
          <mxGeometry relative="1" as="geometry" />
        </mxCell>
        <mxCell id="JJHZLOXNKfBxK5Ap1BSC-43" value="location" style="ellipse;whiteSpace=wrap;html=1;align=center;" parent="1" vertex="1">
          <mxGeometry x="360" y="210" width="85" height="20" as="geometry" />
        </mxCell>
        <mxCell id="JJHZLOXNKfBxK5Ap1BSC-45" value="&lt;span style=&quot;border-bottom: 1px dotted&quot;&gt;parking lot_id&lt;/span&gt;" style="ellipse;whiteSpace=wrap;html=1;align=center;" parent="1" vertex="1">
          <mxGeometry x="465" y="205" width="85" height="30" as="geometry" />
        </mxCell>
        <mxCell id="JJHZLOXNKfBxK5Ap1BSC-46" style="edgeStyle=orthogonalEdgeStyle;rounded=0;orthogonalLoop=1;jettySize=auto;html=1;exitX=0;exitY=1;exitDx=0;exitDy=0;entryX=0.883;entryY=-0.029;entryDx=0;entryDy=0;entryPerimeter=0;endArrow=none;endFill=0;" parent="1" source="JJHZLOXNKfBxK5Ap1BSC-45" target="B9i8zO1DClTU-1D5Rl1U-62" edge="1">
          <mxGeometry relative="1" as="geometry" />
        </mxCell>
        <mxCell id="JJHZLOXNKfBxK5Ap1BSC-47" value="Parking lot" style="shape=ext;margin=3;double=1;whiteSpace=wrap;html=1;align=center;" parent="1" vertex="1">
          <mxGeometry x="50" y="265" width="100" height="40" as="geometry" />
        </mxCell>
        <mxCell id="JJHZLOXNKfBxK5Ap1BSC-50" value="" style="edgeStyle=orthogonalEdgeStyle;rounded=0;orthogonalLoop=1;jettySize=auto;html=1;endArrow=ERone;endFill=0;" parent="1" source="JJHZLOXNKfBxK5Ap1BSC-48" target="JJHZLOXNKfBxK5Ap1BSC-47" edge="1">
          <mxGeometry relative="1" as="geometry" />
        </mxCell>
        <mxCell id="JJHZLOXNKfBxK5Ap1BSC-52" value="" style="edgeStyle=orthogonalEdgeStyle;rounded=0;orthogonalLoop=1;jettySize=auto;html=1;endArrow=ERone;endFill=0;" parent="1" source="JJHZLOXNKfBxK5Ap1BSC-48" target="B9i8zO1DClTU-1D5Rl1U-62" edge="1">
          <mxGeometry relative="1" as="geometry" />
        </mxCell>
        <mxCell id="JJHZLOXNKfBxK5Ap1BSC-48" value="has" style="shape=rhombus;perimeter=rhombusPerimeter;whiteSpace=wrap;html=1;align=center;" parent="1" vertex="1">
          <mxGeometry x="200" y="260" width="100" height="50" as="geometry" />
        </mxCell>
        <mxCell id="JJHZLOXNKfBxK5Ap1BSC-55" style="edgeStyle=orthogonalEdgeStyle;rounded=0;orthogonalLoop=1;jettySize=auto;html=1;exitX=0.5;exitY=1;exitDx=0;exitDy=0;entryX=0;entryY=0.25;entryDx=0;entryDy=0;endArrow=none;endFill=0;" parent="1" source="JJHZLOXNKfBxK5Ap1BSC-53" target="JJHZLOXNKfBxK5Ap1BSC-47" edge="1">
          <mxGeometry relative="1" as="geometry" />
        </mxCell>
        <mxCell id="JJHZLOXNKfBxK5Ap1BSC-53" value="number of space" style="ellipse;whiteSpace=wrap;html=1;align=center;" parent="1" vertex="1">
          <mxGeometry x="-10" y="210" width="100" height="40" as="geometry" />
        </mxCell>
        <mxCell id="JJHZLOXNKfBxK5Ap1BSC-57" value="rewards program id" style="ellipse;whiteSpace=wrap;html=1;align=center;fontStyle=4;" parent="1" vertex="1">
          <mxGeometry x="-50" y="40" width="100" height="40" as="geometry" />
        </mxCell>
        <mxCell id="JJHZLOXNKfBxK5Ap1BSC-58" style="edgeStyle=orthogonalEdgeStyle;rounded=0;orthogonalLoop=1;jettySize=auto;html=1;exitX=0.5;exitY=1;exitDx=0;exitDy=0;entryX=0.117;entryY=0.032;entryDx=0;entryDy=0;entryPerimeter=0;endArrow=none;endFill=0;" parent="1" source="JJHZLOXNKfBxK5Ap1BSC-57" target="B9i8zO1DClTU-1D5Rl1U-34" edge="1">
          <mxGeometry relative="1" as="geometry" />
        </mxCell>
        <mxCell id="JJHZLOXNKfBxK5Ap1BSC-60" style="edgeStyle=orthogonalEdgeStyle;rounded=0;orthogonalLoop=1;jettySize=auto;html=1;exitX=1;exitY=1;exitDx=0;exitDy=0;entryX=0;entryY=0.25;entryDx=0;entryDy=0;endArrow=none;endFill=0;" parent="1" source="JJHZLOXNKfBxK5Ap1BSC-59" target="B9i8zO1DClTU-1D5Rl1U-34" edge="1">
          <mxGeometry relative="1" as="geometry" />
        </mxCell>
        <mxCell id="JJHZLOXNKfBxK5Ap1BSC-59" value="tier" style="ellipse;whiteSpace=wrap;html=1;align=center;" parent="1" vertex="1">
          <mxGeometry x="-120" y="70" width="100" height="40" as="geometry" />
        </mxCell>
        <mxCell id="JJHZLOXNKfBxK5Ap1BSC-62" style="edgeStyle=orthogonalEdgeStyle;rounded=0;orthogonalLoop=1;jettySize=auto;html=1;exitX=0;exitY=1;exitDx=0;exitDy=0;endArrow=none;endFill=0;" parent="1" source="JJHZLOXNKfBxK5Ap1BSC-61" edge="1">
          <mxGeometry relative="1" as="geometry">
            <mxPoint x="260" y="40.00000000000023" as="targetPoint" />
          </mxGeometry>
        </mxCell>
        <mxCell id="JJHZLOXNKfBxK5Ap1BSC-61" value="&lt;span style=&quot;border-bottom: 1px dotted&quot;&gt;reward program id&lt;/span&gt;" style="ellipse;whiteSpace=wrap;html=1;align=center;" parent="1" vertex="1">
          <mxGeometry x="90" y="-20" width="100" height="40" as="geometry" />
        </mxCell>
        <mxCell id="JJHZLOXNKfBxK5Ap1BSC-65" style="edgeStyle=orthogonalEdgeStyle;rounded=0;orthogonalLoop=1;jettySize=auto;html=1;exitX=0.5;exitY=1;exitDx=0;exitDy=0;endArrow=none;endFill=0;" parent="1" source="JJHZLOXNKfBxK5Ap1BSC-64" edge="1">
          <mxGeometry relative="1" as="geometry">
            <mxPoint x="600" y="90" as="targetPoint" />
          </mxGeometry>
        </mxCell>
        <mxCell id="JJHZLOXNKfBxK5Ap1BSC-64" value="&lt;span style=&quot;border-bottom: 1px dotted&quot;&gt;reservation id&lt;/span&gt;" style="ellipse;whiteSpace=wrap;html=1;align=center;" parent="1" vertex="1">
          <mxGeometry x="550" y="-30" width="100" height="40" as="geometry" />
        </mxCell>
        <mxCell id="JJHZLOXNKfBxK5Ap1BSC-66" value="" style="endArrow=none;html=1;rounded=0;" parent="1" edge="1">
          <mxGeometry relative="1" as="geometry">
            <mxPoint x="530" y="90" as="sourcePoint" />
            <mxPoint x="600" y="90" as="targetPoint" />
          </mxGeometry>
        </mxCell>
        <mxCell id="JJHZLOXNKfBxK5Ap1BSC-67" value="parking lot id" style="ellipse;whiteSpace=wrap;html=1;align=center;fontStyle=4;" parent="1" vertex="1">
          <mxGeometry x="90" y="210" width="100" height="40" as="geometry" />
        </mxCell>
        <mxCell id="JJHZLOXNKfBxK5Ap1BSC-68" style="edgeStyle=orthogonalEdgeStyle;rounded=0;orthogonalLoop=1;jettySize=auto;html=1;exitX=0.5;exitY=0;exitDx=0;exitDy=0;entryX=0.296;entryY=0.963;entryDx=0;entryDy=0;entryPerimeter=0;endArrow=none;endFill=0;" parent="1" source="JJHZLOXNKfBxK5Ap1BSC-47" target="JJHZLOXNKfBxK5Ap1BSC-67" edge="1">
          <mxGeometry relative="1" as="geometry" />
        </mxCell>
        <mxCell id="JJHZLOXNKfBxK5Ap1BSC-70" value="" style="endArrow=none;dashed=1;html=1;rounded=0;" parent="1" edge="1">
          <mxGeometry width="50" height="50" relative="1" as="geometry">
            <mxPoint x="560" y="790" as="sourcePoint" />
            <mxPoint x="560" y="670" as="targetPoint" />
          </mxGeometry>
        </mxCell>
        <mxCell id="JJHZLOXNKfBxK5Ap1BSC-71" value="" style="endArrow=none;dashed=1;html=1;rounded=0;" parent="1" edge="1">
          <mxGeometry width="50" height="50" relative="1" as="geometry">
            <mxPoint x="740" y="790" as="sourcePoint" />
            <mxPoint x="560" y="790" as="targetPoint" />
          </mxGeometry>
        </mxCell>
        <mxCell id="JJHZLOXNKfBxK5Ap1BSC-72" value="" style="endArrow=none;dashed=1;html=1;rounded=0;" parent="1" edge="1">
          <mxGeometry width="50" height="50" relative="1" as="geometry">
            <mxPoint x="560" y="670" as="sourcePoint" />
            <mxPoint x="740" y="670" as="targetPoint" />
          </mxGeometry>
        </mxCell>
        <mxCell id="JJHZLOXNKfBxK5Ap1BSC-73" value="" style="endArrow=none;dashed=1;html=1;rounded=0;" parent="1" edge="1">
          <mxGeometry width="50" height="50" relative="1" as="geometry">
            <mxPoint x="740" y="670" as="sourcePoint" />
            <mxPoint x="740" y="790" as="targetPoint" />
          </mxGeometry>
        </mxCell>
        <mxCell id="JJHZLOXNKfBxK5Ap1BSC-78" value="" style="triangle;whiteSpace=wrap;html=1;rotation=-90;" parent="1" vertex="1">
          <mxGeometry x="470" y="560" width="60" height="80" as="geometry" />
        </mxCell>
        <mxCell id="A0ZDd1kq5BEuH8GeKNOG-2" style="edgeStyle=orthogonalEdgeStyle;rounded=0;orthogonalLoop=1;jettySize=auto;html=1;exitX=0.5;exitY=1;exitDx=0;exitDy=0;endArrow=none;endFill=0;" parent="1" source="JJHZLOXNKfBxK5Ap1BSC-79" edge="1">
          <mxGeometry relative="1" as="geometry">
            <mxPoint x="600" y="670" as="targetPoint" />
          </mxGeometry>
        </mxCell>
        <mxCell id="JJHZLOXNKfBxK5Ap1BSC-79" value="&lt;span style=&quot;font-size: 17px; font-weight: 400;&quot;&gt;ISA&lt;/span&gt;" style="text;strokeColor=none;fillColor=none;html=1;fontSize=24;fontStyle=1;verticalAlign=middle;align=center;" parent="1" vertex="1">
          <mxGeometry x="450" y="590" width="100" height="40" as="geometry" />
        </mxCell>
        <mxCell id="JJHZLOXNKfBxK5Ap1BSC-83" value="Housekeeper" style="rounded=1;arcSize=10;whiteSpace=wrap;html=1;align=center;" parent="1" vertex="1">
          <mxGeometry x="650" y="680" width="80" height="40" as="geometry" />
        </mxCell>
        <mxCell id="JJHZLOXNKfBxK5Ap1BSC-84" value="Valet" style="rounded=1;arcSize=10;whiteSpace=wrap;html=1;align=center;" parent="1" vertex="1">
          <mxGeometry x="570" y="730" width="70" height="30" as="geometry" />
        </mxCell>
        <mxCell id="JJHZLOXNKfBxK5Ap1BSC-90" style="edgeStyle=orthogonalEdgeStyle;rounded=0;orthogonalLoop=1;jettySize=auto;html=1;exitX=0.5;exitY=1;exitDx=0;exitDy=0;endArrow=none;endFill=0;" parent="1" source="JJHZLOXNKfBxK5Ap1BSC-86" edge="1">
          <mxGeometry relative="1" as="geometry">
            <mxPoint x="229.96551724137953" y="760" as="targetPoint" />
          </mxGeometry>
        </mxCell>
        <mxCell id="JJHZLOXNKfBxK5Ap1BSC-91" style="edgeStyle=orthogonalEdgeStyle;rounded=0;orthogonalLoop=1;jettySize=auto;html=1;exitX=0.5;exitY=0;exitDx=0;exitDy=0;entryX=0.75;entryY=1;entryDx=0;entryDy=0;endArrow=ERone;endFill=0;" parent="1" source="JJHZLOXNKfBxK5Ap1BSC-86" target="JJHZLOXNKfBxK5Ap1BSC-47" edge="1">
          <mxGeometry relative="1" as="geometry" />
        </mxCell>
        <mxCell id="JJHZLOXNKfBxK5Ap1BSC-86" value="assigned to" style="shape=rhombus;perimeter=rhombusPerimeter;whiteSpace=wrap;html=1;align=center;" parent="1" vertex="1">
          <mxGeometry x="180" y="530" width="100" height="50" as="geometry" />
        </mxCell>
        <mxCell id="JJHZLOXNKfBxK5Ap1BSC-89" value="" style="edgeStyle=entityRelationEdgeStyle;fontSize=12;html=1;endArrow=ERzeroToMany;endFill=0;rounded=0;entryX=0;entryY=0.5;entryDx=0;entryDy=0;" parent="1" target="JJHZLOXNKfBxK5Ap1BSC-84" edge="1">
          <mxGeometry width="100" height="100" relative="1" as="geometry">
            <mxPoint x="230" y="760" as="sourcePoint" />
            <mxPoint x="510" y="810" as="targetPoint" />
            <Array as="points">
              <mxPoint x="270" y="750" />
              <mxPoint x="270" y="770" />
              <mxPoint x="470" y="820" />
              <mxPoint x="470" y="820" />
              <mxPoint x="330" y="730" />
            </Array>
          </mxGeometry>
        </mxCell>
        <mxCell id="JJHZLOXNKfBxK5Ap1BSC-93" style="edgeStyle=orthogonalEdgeStyle;rounded=0;orthogonalLoop=1;jettySize=auto;html=1;exitX=0;exitY=0.5;exitDx=0;exitDy=0;entryX=1;entryY=0.75;entryDx=0;entryDy=0;endArrow=ERone;endFill=0;" parent="1" source="JJHZLOXNKfBxK5Ap1BSC-92" target="JJHZLOXNKfBxK5Ap1BSC-83" edge="1">
          <mxGeometry relative="1" as="geometry" />
        </mxCell>
        <mxCell id="JJHZLOXNKfBxK5Ap1BSC-94" style="edgeStyle=orthogonalEdgeStyle;rounded=0;orthogonalLoop=1;jettySize=auto;html=1;exitX=1;exitY=0.5;exitDx=0;exitDy=0;entryX=0.5;entryY=1;entryDx=0;entryDy=0;endArrow=ERmany;endFill=0;" parent="1" source="JJHZLOXNKfBxK5Ap1BSC-92" target="B9i8zO1DClTU-1D5Rl1U-43" edge="1">
          <mxGeometry relative="1" as="geometry">
            <mxPoint x="790" y="420" as="targetPoint" />
            <Array as="points">
              <mxPoint x="1060" y="655" />
              <mxPoint x="1060" y="581" />
              <mxPoint x="851" y="581" />
              <mxPoint x="851" y="530" />
              <mxPoint x="800" y="530" />
              <mxPoint x="800" y="420" />
              <mxPoint x="730" y="420" />
            </Array>
          </mxGeometry>
        </mxCell>
        <mxCell id="JJHZLOXNKfBxK5Ap1BSC-92" value="cleans" style="shape=rhombus;perimeter=rhombusPerimeter;whiteSpace=wrap;html=1;align=center;" parent="1" vertex="1">
          <mxGeometry x="940" y="630" width="100" height="50" as="geometry" />
        </mxCell>
        <mxCell id="vKug7fDAOGzfk_ScSwMf-1" value="check-in date" style="ellipse;whiteSpace=wrap;html=1;align=center;" parent="1" vertex="1">
          <mxGeometry x="910" y="-10" width="100" height="40" as="geometry" />
        </mxCell>
        <mxCell id="vKug7fDAOGzfk_ScSwMf-2" value="check-out date" style="ellipse;whiteSpace=wrap;html=1;align=center;" parent="1" vertex="1">
          <mxGeometry x="900" y="50" width="100" height="40" as="geometry" />
        </mxCell>
        <mxCell id="vKug7fDAOGzfk_ScSwMf-6" style="edgeStyle=orthogonalEdgeStyle;rounded=0;orthogonalLoop=1;jettySize=auto;html=1;exitX=0;exitY=1;exitDx=0;exitDy=0;entryX=0.899;entryY=0.029;entryDx=0;entryDy=0;entryPerimeter=0;endArrow=none;endFill=0;" parent="1" source="vKug7fDAOGzfk_ScSwMf-1" target="B9i8zO1DClTU-1D5Rl1U-6" edge="1">
          <mxGeometry relative="1" as="geometry" />
        </mxCell>
        <mxCell id="vKug7fDAOGzfk_ScSwMf-7" style="edgeStyle=orthogonalEdgeStyle;rounded=0;orthogonalLoop=1;jettySize=auto;html=1;exitX=0;exitY=1;exitDx=0;exitDy=0;entryX=1;entryY=0.357;entryDx=0;entryDy=0;entryPerimeter=0;endArrow=none;endFill=0;" parent="1" source="vKug7fDAOGzfk_ScSwMf-2" target="B9i8zO1DClTU-1D5Rl1U-6" edge="1">
          <mxGeometry relative="1" as="geometry" />
        </mxCell>
        <mxCell id="vKug7fDAOGzfk_ScSwMf-10" style="rounded=0;orthogonalLoop=1;jettySize=auto;html=1;exitX=0;exitY=0.5;exitDx=0;exitDy=0;edgeStyle=orthogonalEdgeStyle;entryX=0.999;entryY=0.168;entryDx=0;entryDy=0;entryPerimeter=0;endArrow=ERzeroToOne;endFill=0;" parent="1" source="vKug7fDAOGzfk_ScSwMf-8" target="JJHZLOXNKfBxK5Ap1BSC-47" edge="1">
          <mxGeometry relative="1" as="geometry">
            <mxPoint x="200" y="250" as="targetPoint" />
            <Array as="points">
              <mxPoint x="448" y="190" />
              <mxPoint x="448" y="171" />
              <mxPoint x="360" y="171" />
              <mxPoint x="360" y="180" />
              <mxPoint x="220" y="180" />
              <mxPoint x="220" y="260" />
              <mxPoint x="200" y="260" />
              <mxPoint x="200" y="272" />
            </Array>
          </mxGeometry>
        </mxCell>
        <mxCell id="vKug7fDAOGzfk_ScSwMf-8" value="reserve" style="shape=rhombus;perimeter=rhombusPerimeter;whiteSpace=wrap;html=1;align=center;" parent="1" vertex="1">
          <mxGeometry x="535" y="170" width="75" height="40" as="geometry" />
        </mxCell>
        <mxCell id="vKug7fDAOGzfk_ScSwMf-9" style="edgeStyle=orthogonalEdgeStyle;rounded=0;orthogonalLoop=1;jettySize=auto;html=1;exitX=1;exitY=0.5;exitDx=0;exitDy=0;entryX=0.041;entryY=1.043;entryDx=0;entryDy=0;entryPerimeter=0;endArrow=ERone;endFill=0;" parent="1" source="vKug7fDAOGzfk_ScSwMf-8" target="B9i8zO1DClTU-1D5Rl1U-6" edge="1">
          <mxGeometry relative="1" as="geometry" />
        </mxCell>
        <mxCell id="vKug7fDAOGzfk_ScSwMf-13" value="Hotel Review" style="shape=ext;margin=3;double=1;whiteSpace=wrap;html=1;align=center;" parent="1" vertex="1">
          <mxGeometry x="960" y="160" width="100" height="40" as="geometry" />
        </mxCell>
        <mxCell id="vKug7fDAOGzfk_ScSwMf-16" style="edgeStyle=orthogonalEdgeStyle;rounded=0;orthogonalLoop=1;jettySize=auto;html=1;exitX=1;exitY=0.5;exitDx=0;exitDy=0;entryX=0.5;entryY=1;entryDx=0;entryDy=0;endArrow=ERzeroToMany;endFill=0;" parent="1" source="vKug7fDAOGzfk_ScSwMf-15" target="vKug7fDAOGzfk_ScSwMf-13" edge="1">
          <mxGeometry relative="1" as="geometry">
            <mxPoint x="940" y="240" as="targetPoint" />
            <Array as="points">
              <mxPoint x="930" y="407" />
              <mxPoint x="930" y="240" />
              <mxPoint x="1010" y="240" />
            </Array>
          </mxGeometry>
        </mxCell>
        <mxCell id="vKug7fDAOGzfk_ScSwMf-18" style="edgeStyle=orthogonalEdgeStyle;rounded=0;orthogonalLoop=1;jettySize=auto;html=1;exitX=0;exitY=0.5;exitDx=0;exitDy=0;entryX=1;entryY=1;entryDx=0;entryDy=0;endArrow=ERone;endFill=0;" parent="1" source="vKug7fDAOGzfk_ScSwMf-15" target="B9i8zO1DClTU-1D5Rl1U-62" edge="1">
          <mxGeometry relative="1" as="geometry">
            <mxPoint x="480" y="340" as="targetPoint" />
            <Array as="points">
              <mxPoint x="720" y="407" />
              <mxPoint x="720" y="330" />
              <mxPoint x="480" y="330" />
              <mxPoint x="480" y="300" />
            </Array>
          </mxGeometry>
        </mxCell>
        <mxCell id="vKug7fDAOGzfk_ScSwMf-15" value="belogns to" style="shape=rhombus;perimeter=rhombusPerimeter;whiteSpace=wrap;html=1;align=center;" parent="1" vertex="1">
          <mxGeometry x="820" y="385" width="80" height="45" as="geometry" />
        </mxCell>
        <mxCell id="vKug7fDAOGzfk_ScSwMf-21" style="edgeStyle=orthogonalEdgeStyle;rounded=0;orthogonalLoop=1;jettySize=auto;html=1;exitX=1;exitY=0.5;exitDx=0;exitDy=0;entryX=0;entryY=1;entryDx=0;entryDy=0;endArrow=ERmandOne;endFill=0;" parent="1" source="vKug7fDAOGzfk_ScSwMf-19" target="vKug7fDAOGzfk_ScSwMf-13" edge="1">
          <mxGeometry relative="1" as="geometry" />
        </mxCell>
        <mxCell id="vKug7fDAOGzfk_ScSwMf-25" style="edgeStyle=orthogonalEdgeStyle;rounded=0;orthogonalLoop=1;jettySize=auto;html=1;exitX=0;exitY=0;exitDx=0;exitDy=0;entryX=0.75;entryY=1;entryDx=0;entryDy=0;endArrow=ERone;endFill=0;" parent="1" source="vKug7fDAOGzfk_ScSwMf-19" target="B9i8zO1DClTU-1D5Rl1U-6" edge="1">
          <mxGeometry relative="1" as="geometry" />
        </mxCell>
        <mxCell id="vKug7fDAOGzfk_ScSwMf-19" value="leaves" style="shape=rhombus;perimeter=rhombusPerimeter;whiteSpace=wrap;html=1;align=center;" parent="1" vertex="1">
          <mxGeometry x="860" y="180" width="70" height="40" as="geometry" />
        </mxCell>
        <mxCell id="vKug7fDAOGzfk_ScSwMf-27" style="edgeStyle=orthogonalEdgeStyle;rounded=0;orthogonalLoop=1;jettySize=auto;html=1;exitX=0;exitY=0.5;exitDx=0;exitDy=0;entryX=0.75;entryY=0;entryDx=0;entryDy=0;endArrow=none;endFill=0;" parent="1" source="vKug7fDAOGzfk_ScSwMf-26" target="vKug7fDAOGzfk_ScSwMf-13" edge="1">
          <mxGeometry relative="1" as="geometry" />
        </mxCell>
        <mxCell id="vKug7fDAOGzfk_ScSwMf-26" value="hotel review id" style="ellipse;whiteSpace=wrap;html=1;align=center;fontStyle=4;" parent="1" vertex="1">
          <mxGeometry x="1080" y="120" width="100" height="40" as="geometry" />
        </mxCell>
        <mxCell id="vKug7fDAOGzfk_ScSwMf-31" style="edgeStyle=orthogonalEdgeStyle;rounded=0;orthogonalLoop=1;jettySize=auto;html=1;exitX=0;exitY=0.5;exitDx=0;exitDy=0;entryX=1;entryY=1;entryDx=0;entryDy=0;endArrow=none;endFill=0;" parent="1" source="vKug7fDAOGzfk_ScSwMf-29" target="vKug7fDAOGzfk_ScSwMf-13" edge="1">
          <mxGeometry relative="1" as="geometry" />
        </mxCell>
        <mxCell id="vKug7fDAOGzfk_ScSwMf-29" value="&lt;span style=&quot;border-bottom: 1px dotted&quot;&gt;hotel branch id&lt;/span&gt;" style="ellipse;whiteSpace=wrap;html=1;align=center;" parent="1" vertex="1">
          <mxGeometry x="1080" y="220" width="100" height="40" as="geometry" />
        </mxCell>
        <mxCell id="vKug7fDAOGzfk_ScSwMf-32" style="edgeStyle=orthogonalEdgeStyle;rounded=0;orthogonalLoop=1;jettySize=auto;html=1;exitX=0;exitY=0.5;exitDx=0;exitDy=0;entryX=1;entryY=0.75;entryDx=0;entryDy=0;endArrow=none;endFill=0;" parent="1" source="vKug7fDAOGzfk_ScSwMf-30" target="vKug7fDAOGzfk_ScSwMf-13" edge="1">
          <mxGeometry relative="1" as="geometry" />
        </mxCell>
        <mxCell id="vKug7fDAOGzfk_ScSwMf-30" value="&lt;span style=&quot;border-bottom: 1px dotted&quot;&gt;reservation id&lt;/span&gt;" style="ellipse;whiteSpace=wrap;html=1;align=center;" parent="1" vertex="1">
          <mxGeometry x="1080" y="170" width="100" height="40" as="geometry" />
        </mxCell>
        <mxCell id="vKug7fDAOGzfk_ScSwMf-33" value="rating" style="ellipse;whiteSpace=wrap;html=1;align=center;" parent="1" vertex="1">
          <mxGeometry x="1020" y="80" width="90" height="30" as="geometry" />
        </mxCell>
        <mxCell id="vKug7fDAOGzfk_ScSwMf-34" style="edgeStyle=orthogonalEdgeStyle;rounded=0;orthogonalLoop=1;jettySize=auto;html=1;exitX=0;exitY=1;exitDx=0;exitDy=0;entryX=0.63;entryY=0.05;entryDx=0;entryDy=0;entryPerimeter=0;endArrow=none;endFill=0;" parent="1" source="vKug7fDAOGzfk_ScSwMf-33" target="vKug7fDAOGzfk_ScSwMf-13" edge="1">
          <mxGeometry relative="1" as="geometry" />
        </mxCell>
        <mxCell id="vKug7fDAOGzfk_ScSwMf-35" value="date" style="ellipse;whiteSpace=wrap;html=1;align=center;" parent="1" vertex="1">
          <mxGeometry x="1120" y="80" width="90" height="35" as="geometry" />
        </mxCell>
        <mxCell id="vKug7fDAOGzfk_ScSwMf-36" style="edgeStyle=orthogonalEdgeStyle;rounded=0;orthogonalLoop=1;jettySize=auto;html=1;exitX=0;exitY=1;exitDx=0;exitDy=0;entryX=0.939;entryY=0.021;entryDx=0;entryDy=0;entryPerimeter=0;endArrow=none;endFill=0;" parent="1" source="vKug7fDAOGzfk_ScSwMf-35" target="vKug7fDAOGzfk_ScSwMf-13" edge="1">
          <mxGeometry relative="1" as="geometry">
            <Array as="points">
              <mxPoint x="1133" y="120" />
              <mxPoint x="1054" y="120" />
            </Array>
          </mxGeometry>
        </mxCell>
        <mxCell id="vKug7fDAOGzfk_ScSwMf-40" style="edgeStyle=orthogonalEdgeStyle;rounded=0;orthogonalLoop=1;jettySize=auto;html=1;exitX=1;exitY=0.5;exitDx=0;exitDy=0;entryX=0.004;entryY=0.907;entryDx=0;entryDy=0;entryPerimeter=0;endArrow=ERoneToMany;endFill=0;" parent="1" target="B9i8zO1DClTU-1D5Rl1U-62" edge="1">
          <mxGeometry relative="1" as="geometry">
            <mxPoint x="240" y="365" as="sourcePoint" />
          </mxGeometry>
        </mxCell>
        <mxCell id="vKug7fDAOGzfk_ScSwMf-49" style="edgeStyle=orthogonalEdgeStyle;rounded=0;orthogonalLoop=1;jettySize=auto;html=1;exitX=0;exitY=0.5;exitDx=0;exitDy=0;endArrow=ERoneToMany;endFill=0;" parent="1" source="vKug7fDAOGzfk_ScSwMf-41" target="vKug7fDAOGzfk_ScSwMf-48" edge="1">
          <mxGeometry relative="1" as="geometry" />
        </mxCell>
        <mxCell id="vKug7fDAOGzfk_ScSwMf-41" value="supply" style="shape=associativeEntity;whiteSpace=wrap;html=1;align=center;" parent="1" vertex="1">
          <mxGeometry x="140" y="360" width="100" height="40" as="geometry" />
        </mxCell>
        <mxCell id="vKug7fDAOGzfk_ScSwMf-44" style="edgeStyle=orthogonalEdgeStyle;rounded=0;orthogonalLoop=1;jettySize=auto;html=1;exitX=0.5;exitY=1;exitDx=0;exitDy=0;entryX=0;entryY=0.25;entryDx=0;entryDy=0;endArrow=none;endFill=0;" parent="1" source="vKug7fDAOGzfk_ScSwMf-43" edge="1">
          <mxGeometry relative="1" as="geometry">
            <mxPoint x="-40.00000000000023" y="385" as="targetPoint" />
          </mxGeometry>
        </mxCell>
        <mxCell id="vKug7fDAOGzfk_ScSwMf-43" value="linen service id" style="ellipse;whiteSpace=wrap;html=1;align=center;fontStyle=4;" parent="1" vertex="1">
          <mxGeometry x="-140" y="320" width="100" height="40" as="geometry" />
        </mxCell>
        <mxCell id="vKug7fDAOGzfk_ScSwMf-46" style="edgeStyle=orthogonalEdgeStyle;rounded=0;orthogonalLoop=1;jettySize=auto;html=1;exitX=0.5;exitY=1;exitDx=0;exitDy=0;entryX=0.5;entryY=0;entryDx=0;entryDy=0;endArrow=none;endFill=0;" parent="1" source="vKug7fDAOGzfk_ScSwMf-45" edge="1">
          <mxGeometry relative="1" as="geometry">
            <mxPoint x="9.999999999999773" y="375" as="targetPoint" />
          </mxGeometry>
        </mxCell>
        <mxCell id="vKug7fDAOGzfk_ScSwMf-45" value="phone number" style="ellipse;whiteSpace=wrap;html=1;align=center;" parent="1" vertex="1">
          <mxGeometry x="-30" y="320" width="80" height="30" as="geometry" />
        </mxCell>
        <mxCell id="vKug7fDAOGzfk_ScSwMf-47" value="Restaurant" style="shape=ext;margin=3;double=1;whiteSpace=wrap;html=1;align=center;" parent="1" vertex="1">
          <mxGeometry x="-40" y="450" width="100" height="40" as="geometry" />
        </mxCell>
        <mxCell id="vKug7fDAOGzfk_ScSwMf-48" value="Linen Service" style="shape=ext;margin=3;double=1;whiteSpace=wrap;html=1;align=center;" parent="1" vertex="1">
          <mxGeometry x="-40" y="375" width="100" height="40" as="geometry" />
        </mxCell>
        <mxCell id="vKug7fDAOGzfk_ScSwMf-51" style="edgeStyle=orthogonalEdgeStyle;rounded=0;orthogonalLoop=1;jettySize=auto;html=1;exitX=0;exitY=0.5;exitDx=0;exitDy=0;entryX=1;entryY=0.5;entryDx=0;entryDy=0;endArrow=ERzeroToMany;endFill=0;" parent="1" source="vKug7fDAOGzfk_ScSwMf-50" target="vKug7fDAOGzfk_ScSwMf-47" edge="1">
          <mxGeometry relative="1" as="geometry" />
        </mxCell>
        <mxCell id="vKug7fDAOGzfk_ScSwMf-52" style="edgeStyle=orthogonalEdgeStyle;rounded=0;orthogonalLoop=1;jettySize=auto;html=1;exitX=1;exitY=0.5;exitDx=0;exitDy=0;entryX=0.124;entryY=1.041;entryDx=0;entryDy=0;entryPerimeter=0;endArrow=ERone;endFill=0;" parent="1" source="vKug7fDAOGzfk_ScSwMf-50" target="B9i8zO1DClTU-1D5Rl1U-62" edge="1">
          <mxGeometry relative="1" as="geometry">
            <mxPoint x="290" y="350" as="targetPoint" />
            <Array as="points">
              <mxPoint x="291" y="450" />
              <mxPoint x="291" y="390" />
              <mxPoint x="280" y="390" />
              <mxPoint x="280" y="350" />
              <mxPoint x="342" y="350" />
            </Array>
          </mxGeometry>
        </mxCell>
        <mxCell id="vKug7fDAOGzfk_ScSwMf-50" value="is in" style="shape=rhombus;perimeter=rhombusPerimeter;whiteSpace=wrap;html=1;align=center;" parent="1" vertex="1">
          <mxGeometry x="100" y="430" width="90" height="40" as="geometry" />
        </mxCell>
        <mxCell id="vKug7fDAOGzfk_ScSwMf-54" style="edgeStyle=orthogonalEdgeStyle;rounded=0;orthogonalLoop=1;jettySize=auto;html=1;exitX=1;exitY=0;exitDx=0;exitDy=0;entryX=0;entryY=0;entryDx=0;entryDy=0;endArrow=none;endFill=0;" parent="1" source="vKug7fDAOGzfk_ScSwMf-53" target="vKug7fDAOGzfk_ScSwMf-47" edge="1">
          <mxGeometry relative="1" as="geometry" />
        </mxCell>
        <mxCell id="vKug7fDAOGzfk_ScSwMf-53" value="restaurant id" style="ellipse;whiteSpace=wrap;html=1;align=center;fontStyle=4;" parent="1" vertex="1">
          <mxGeometry x="-160" y="430" width="100" height="40" as="geometry" />
        </mxCell>
        <mxCell id="vKug7fDAOGzfk_ScSwMf-56" style="edgeStyle=orthogonalEdgeStyle;rounded=0;orthogonalLoop=1;jettySize=auto;html=1;exitX=1;exitY=0;exitDx=0;exitDy=0;entryX=0;entryY=1;entryDx=0;entryDy=0;endArrow=none;endFill=0;" parent="1" source="vKug7fDAOGzfk_ScSwMf-55" target="vKug7fDAOGzfk_ScSwMf-47" edge="1">
          <mxGeometry relative="1" as="geometry" />
        </mxCell>
        <mxCell id="vKug7fDAOGzfk_ScSwMf-55" value="&lt;span style=&quot;border-bottom: 1px dotted&quot;&gt;hotel branch id&lt;/span&gt;" style="ellipse;whiteSpace=wrap;html=1;align=center;" parent="1" vertex="1">
          <mxGeometry x="-160" y="490" width="100" height="40" as="geometry" />
        </mxCell>
        <mxCell id="vKug7fDAOGzfk_ScSwMf-57" value="name" style="ellipse;whiteSpace=wrap;html=1;align=center;" parent="1" vertex="1">
          <mxGeometry x="-160" y="540" width="80" height="30" as="geometry" />
        </mxCell>
        <mxCell id="vKug7fDAOGzfk_ScSwMf-58" style="edgeStyle=orthogonalEdgeStyle;rounded=0;orthogonalLoop=1;jettySize=auto;html=1;exitX=1;exitY=0;exitDx=0;exitDy=0;entryX=0.148;entryY=1.066;entryDx=0;entryDy=0;entryPerimeter=0;endArrow=none;endFill=0;" parent="1" source="vKug7fDAOGzfk_ScSwMf-57" target="vKug7fDAOGzfk_ScSwMf-47" edge="1">
          <mxGeometry relative="1" as="geometry" />
        </mxCell>
        <mxCell id="Phorr9IZyZ9SOU1izLDo-35" style="edgeStyle=orthogonalEdgeStyle;rounded=0;orthogonalLoop=1;jettySize=auto;html=1;exitX=0.5;exitY=0;exitDx=0;exitDy=0;endArrow=none;endFill=0;" parent="1" source="vKug7fDAOGzfk_ScSwMf-59" edge="1">
          <mxGeometry relative="1" as="geometry">
            <mxPoint x="-29.88235294117635" y="540" as="targetPoint" />
          </mxGeometry>
        </mxCell>
        <mxCell id="vKug7fDAOGzfk_ScSwMf-59" value="hours of opperation" style="ellipse;whiteSpace=wrap;html=1;align=center;" parent="1" vertex="1">
          <mxGeometry x="-70" y="560" width="80" height="30" as="geometry" />
        </mxCell>
        <mxCell id="vKug7fDAOGzfk_ScSwMf-60" style="edgeStyle=orthogonalEdgeStyle;rounded=0;orthogonalLoop=1;jettySize=auto;html=1;exitX=1;exitY=0;exitDx=0;exitDy=0;entryX=0.389;entryY=1;entryDx=0;entryDy=0;entryPerimeter=0;endArrow=none;endFill=0;" parent="1" source="vKug7fDAOGzfk_ScSwMf-59" target="vKug7fDAOGzfk_ScSwMf-47" edge="1">
          <mxGeometry relative="1" as="geometry" />
        </mxCell>
        <mxCell id="vKug7fDAOGzfk_ScSwMf-62" style="edgeStyle=orthogonalEdgeStyle;rounded=0;orthogonalLoop=1;jettySize=auto;html=1;exitX=0.5;exitY=1;exitDx=0;exitDy=0;entryX=0.5;entryY=0;entryDx=0;entryDy=0;endArrow=none;endFill=0;" parent="1" source="vKug7fDAOGzfk_ScSwMf-61" target="vKug7fDAOGzfk_ScSwMf-41" edge="1">
          <mxGeometry relative="1" as="geometry" />
        </mxCell>
        <mxCell id="vKug7fDAOGzfk_ScSwMf-61" value="supply id" style="ellipse;whiteSpace=wrap;html=1;align=center;fontStyle=4;" parent="1" vertex="1">
          <mxGeometry x="130" y="320" width="80" height="20" as="geometry" />
        </mxCell>
        <mxCell id="vKug7fDAOGzfk_ScSwMf-63" value="&lt;span style=&quot;border-bottom: 1px dotted&quot;&gt;&lt;font style=&quot;font-size: 8px;&quot;&gt;hotel &lt;/font&gt;&lt;font style=&quot;font-size: 8px;&quot;&gt;branch id&lt;/font&gt;&lt;/span&gt;" style="ellipse;whiteSpace=wrap;html=1;align=center;" parent="1" vertex="1">
          <mxGeometry x="210" y="320" width="60" height="20" as="geometry" />
        </mxCell>
        <mxCell id="vKug7fDAOGzfk_ScSwMf-64" style="edgeStyle=orthogonalEdgeStyle;rounded=0;orthogonalLoop=1;jettySize=auto;html=1;exitX=0.5;exitY=1;exitDx=0;exitDy=0;entryX=0.836;entryY=-0.036;entryDx=0;entryDy=0;entryPerimeter=0;endArrow=none;endFill=0;" parent="1" source="vKug7fDAOGzfk_ScSwMf-63" target="vKug7fDAOGzfk_ScSwMf-41" edge="1">
          <mxGeometry relative="1" as="geometry" />
        </mxCell>
        <mxCell id="vKug7fDAOGzfk_ScSwMf-65" value="&lt;span style=&quot;border-bottom: 1px dotted&quot;&gt;&lt;font style=&quot;font-size: 8px;&quot;&gt;linen service id&lt;/font&gt;&lt;/span&gt;" style="ellipse;whiteSpace=wrap;html=1;align=center;" parent="1" vertex="1">
          <mxGeometry x="60" y="340" width="60" height="20" as="geometry" />
        </mxCell>
        <mxCell id="vKug7fDAOGzfk_ScSwMf-66" style="edgeStyle=orthogonalEdgeStyle;rounded=0;orthogonalLoop=1;jettySize=auto;html=1;exitX=1;exitY=0.5;exitDx=0;exitDy=0;entryX=0.167;entryY=-0.007;entryDx=0;entryDy=0;entryPerimeter=0;endArrow=none;endFill=0;" parent="1" source="vKug7fDAOGzfk_ScSwMf-65" target="vKug7fDAOGzfk_ScSwMf-41" edge="1">
          <mxGeometry relative="1" as="geometry" />
        </mxCell>
        <mxCell id="vKug7fDAOGzfk_ScSwMf-68" style="edgeStyle=orthogonalEdgeStyle;rounded=0;orthogonalLoop=1;jettySize=auto;html=1;exitX=1;exitY=0.5;exitDx=0;exitDy=0;entryX=0;entryY=0.5;entryDx=0;entryDy=0;endArrow=none;endFill=0;" parent="1" source="vKug7fDAOGzfk_ScSwMf-67" target="JJHZLOXNKfBxK5Ap1BSC-23" edge="1">
          <mxGeometry relative="1" as="geometry" />
        </mxCell>
        <mxCell id="vKug7fDAOGzfk_ScSwMf-67" value="&lt;u&gt;ammenity id&lt;/u&gt;" style="ellipse;whiteSpace=wrap;html=1;align=center;" parent="1" vertex="1">
          <mxGeometry x="275" y="660" width="85" height="30" as="geometry" />
        </mxCell>
        <mxCell id="vKug7fDAOGzfk_ScSwMf-69" value="ammenity name" style="ellipse;whiteSpace=wrap;html=1;align=center;" parent="1" vertex="1">
          <mxGeometry x="425" y="710" width="80" height="30" as="geometry" />
        </mxCell>
        <mxCell id="vKug7fDAOGzfk_ScSwMf-71" style="edgeStyle=orthogonalEdgeStyle;rounded=0;orthogonalLoop=1;jettySize=auto;html=1;exitX=0;exitY=0;exitDx=0;exitDy=0;entryX=0.667;entryY=1;entryDx=0;entryDy=0;entryPerimeter=0;endArrow=none;endFill=0;" parent="1" source="vKug7fDAOGzfk_ScSwMf-69" target="JJHZLOXNKfBxK5Ap1BSC-23" edge="1">
          <mxGeometry relative="1" as="geometry" />
        </mxCell>
        <mxCell id="vKug7fDAOGzfk_ScSwMf-73" style="edgeStyle=orthogonalEdgeStyle;rounded=0;orthogonalLoop=1;jettySize=auto;html=1;exitX=0;exitY=0;exitDx=0;exitDy=0;entryX=1;entryY=0.5;entryDx=0;entryDy=0;endArrow=none;endFill=0;" parent="1" source="vKug7fDAOGzfk_ScSwMf-72" target="B9i8zO1DClTU-1D5Rl1U-68" edge="1">
          <mxGeometry relative="1" as="geometry" />
        </mxCell>
        <mxCell id="vKug7fDAOGzfk_ScSwMf-72" value="index" style="ellipse;whiteSpace=wrap;html=1;align=center;fontStyle=4;" parent="1" vertex="1">
          <mxGeometry x="415" y="395" width="65" height="30" as="geometry" />
        </mxCell>
        <mxCell id="vKug7fDAOGzfk_ScSwMf-74" value="&lt;span style=&quot;border-bottom: 1px dotted&quot;&gt;ammenity id&lt;/span&gt;" style="ellipse;whiteSpace=wrap;html=1;align=center;" parent="1" vertex="1">
          <mxGeometry x="390" y="430" width="90" height="30" as="geometry" />
        </mxCell>
        <mxCell id="vKug7fDAOGzfk_ScSwMf-75" style="edgeStyle=orthogonalEdgeStyle;rounded=0;orthogonalLoop=1;jettySize=auto;html=1;exitX=0;exitY=0;exitDx=0;exitDy=0;entryX=0.939;entryY=1.027;entryDx=0;entryDy=0;entryPerimeter=0;endArrow=none;endFill=0;" parent="1" source="vKug7fDAOGzfk_ScSwMf-74" target="B9i8zO1DClTU-1D5Rl1U-68" edge="1">
          <mxGeometry relative="1" as="geometry" />
        </mxCell>
        <mxCell id="vKug7fDAOGzfk_ScSwMf-76" value="&lt;span style=&quot;border-bottom: 1px dotted&quot;&gt;hotel branch id&lt;/span&gt;" style="ellipse;whiteSpace=wrap;html=1;align=center;" parent="1" vertex="1">
          <mxGeometry x="395" y="365" width="85" height="20" as="geometry" />
        </mxCell>
        <mxCell id="vKug7fDAOGzfk_ScSwMf-77" style="edgeStyle=orthogonalEdgeStyle;rounded=0;orthogonalLoop=1;jettySize=auto;html=1;exitX=0;exitY=1;exitDx=0;exitDy=0;entryX=1.008;entryY=0.393;entryDx=0;entryDy=0;entryPerimeter=0;endArrow=none;endFill=0;" parent="1" source="vKug7fDAOGzfk_ScSwMf-76" target="B9i8zO1DClTU-1D5Rl1U-68" edge="1">
          <mxGeometry relative="1" as="geometry" />
        </mxCell>
        <mxCell id="vKug7fDAOGzfk_ScSwMf-79" style="edgeStyle=orthogonalEdgeStyle;rounded=0;orthogonalLoop=1;jettySize=auto;html=1;exitX=0.5;exitY=1;exitDx=0;exitDy=0;entryX=0;entryY=0.25;entryDx=0;entryDy=0;endArrow=none;endFill=0;" parent="1" source="vKug7fDAOGzfk_ScSwMf-78" target="JJHZLOXNKfBxK5Ap1BSC-16" edge="1">
          <mxGeometry relative="1" as="geometry" />
        </mxCell>
        <mxCell id="vKug7fDAOGzfk_ScSwMf-78" value="&lt;span style=&quot;border-bottom: 1px dotted&quot;&gt;ammenity id&lt;/span&gt;" style="ellipse;whiteSpace=wrap;html=1;align=center;" parent="1" vertex="1">
          <mxGeometry x="575" y="355" width="90" height="30" as="geometry" />
        </mxCell>
        <mxCell id="vKug7fDAOGzfk_ScSwMf-81" style="edgeStyle=orthogonalEdgeStyle;rounded=0;orthogonalLoop=1;jettySize=auto;html=1;exitX=1;exitY=0.5;exitDx=0;exitDy=0;entryX=0.75;entryY=1;entryDx=0;entryDy=0;endArrow=none;endFill=0;" parent="1" source="vKug7fDAOGzfk_ScSwMf-80" target="JJHZLOXNKfBxK5Ap1BSC-16" edge="1">
          <mxGeometry relative="1" as="geometry" />
        </mxCell>
        <mxCell id="vKug7fDAOGzfk_ScSwMf-80" value="&lt;span style=&quot;border-bottom: 1px dotted&quot;&gt;room id&lt;/span&gt;" style="ellipse;whiteSpace=wrap;html=1;align=center;" parent="1" vertex="1">
          <mxGeometry x="585" y="432.5" width="95" height="25" as="geometry" />
        </mxCell>
        <mxCell id="vKug7fDAOGzfk_ScSwMf-83" style="edgeStyle=orthogonalEdgeStyle;rounded=0;orthogonalLoop=1;jettySize=auto;html=1;exitX=0.5;exitY=0;exitDx=0;exitDy=0;endArrow=none;endFill=0;" parent="1" source="vKug7fDAOGzfk_ScSwMf-82" edge="1">
          <mxGeometry relative="1" as="geometry">
            <mxPoint x="640" y="394.66666666666697" as="targetPoint" />
          </mxGeometry>
        </mxCell>
        <mxCell id="vKug7fDAOGzfk_ScSwMf-82" value="index" style="ellipse;whiteSpace=wrap;html=1;align=center;fontStyle=4;" parent="1" vertex="1">
          <mxGeometry x="580" y="395" width="60" height="20" as="geometry" />
        </mxCell>
        <mxCell id="vKug7fDAOGzfk_ScSwMf-87" style="edgeStyle=orthogonalEdgeStyle;rounded=0;orthogonalLoop=1;jettySize=auto;html=1;exitX=0;exitY=0.5;exitDx=0;exitDy=0;endArrow=none;endFill=0;" parent="1" source="vKug7fDAOGzfk_ScSwMf-84" edge="1">
          <mxGeometry relative="1" as="geometry">
            <mxPoint x="1050" y="440" as="targetPoint" />
          </mxGeometry>
        </mxCell>
        <mxCell id="vKug7fDAOGzfk_ScSwMf-84" value="&lt;span style=&quot;border-bottom: 1px dotted&quot;&gt;employee id&lt;/span&gt;" style="ellipse;whiteSpace=wrap;html=1;align=center;" parent="1" vertex="1">
          <mxGeometry x="1100" y="385" width="100" height="40" as="geometry" />
        </mxCell>
        <mxCell id="vKug7fDAOGzfk_ScSwMf-88" style="edgeStyle=orthogonalEdgeStyle;rounded=0;orthogonalLoop=1;jettySize=auto;html=1;exitX=0;exitY=0.5;exitDx=0;exitDy=0;endArrow=none;endFill=0;" parent="1" source="vKug7fDAOGzfk_ScSwMf-85" edge="1">
          <mxGeometry relative="1" as="geometry">
            <mxPoint x="1050" y="440" as="targetPoint" />
          </mxGeometry>
        </mxCell>
        <mxCell id="vKug7fDAOGzfk_ScSwMf-85" value="&lt;span style=&quot;border-bottom: 1px dotted&quot;&gt;role id&lt;/span&gt;" style="ellipse;whiteSpace=wrap;html=1;align=center;" parent="1" vertex="1">
          <mxGeometry x="1100" y="433" width="100" height="40" as="geometry" />
        </mxCell>
        <mxCell id="vKug7fDAOGzfk_ScSwMf-86" value="index" style="ellipse;whiteSpace=wrap;html=1;align=center;fontStyle=4;" parent="1" vertex="1">
          <mxGeometry x="940" y="400" width="80" height="30" as="geometry" />
        </mxCell>
        <mxCell id="vKug7fDAOGzfk_ScSwMf-90" value="" style="endArrow=none;html=1;rounded=0;entryX=1;entryY=0;entryDx=0;entryDy=0;" parent="1" target="mOBhRHJ4F4w7F-7LLjBb-7" edge="1">
          <mxGeometry width="50" height="50" relative="1" as="geometry">
            <mxPoint x="1050" y="430" as="sourcePoint" />
            <mxPoint x="780" y="390" as="targetPoint" />
          </mxGeometry>
        </mxCell>
        <mxCell id="vKug7fDAOGzfk_ScSwMf-97" style="edgeStyle=orthogonalEdgeStyle;rounded=0;orthogonalLoop=1;jettySize=auto;html=1;exitX=0;exitY=0.5;exitDx=0;exitDy=0;entryX=1;entryY=0.5;entryDx=0;entryDy=0;endArrow=ERone;endFill=0;" parent="1" source="vKug7fDAOGzfk_ScSwMf-94" target="vKug7fDAOGzfk_ScSwMf-96" edge="1">
          <mxGeometry relative="1" as="geometry" />
        </mxCell>
        <mxCell id="vKug7fDAOGzfk_ScSwMf-94" value="has" style="shape=rhombus;perimeter=rhombusPerimeter;whiteSpace=wrap;html=1;align=center;" parent="1" vertex="1">
          <mxGeometry x="80" y="160" width="80" height="35" as="geometry" />
        </mxCell>
        <mxCell id="vKug7fDAOGzfk_ScSwMf-95" style="edgeStyle=orthogonalEdgeStyle;rounded=0;orthogonalLoop=1;jettySize=auto;html=1;exitX=1;exitY=0.5;exitDx=0;exitDy=0;entryX=0.125;entryY=0.033;entryDx=0;entryDy=0;entryPerimeter=0;endArrow=ERone;endFill=0;" parent="1" source="vKug7fDAOGzfk_ScSwMf-94" target="B9i8zO1DClTU-1D5Rl1U-62" edge="1">
          <mxGeometry relative="1" as="geometry" />
        </mxCell>
        <mxCell id="vKug7fDAOGzfk_ScSwMf-96" value="Staff Schedule" style="shape=ext;margin=3;double=1;whiteSpace=wrap;html=1;align=center;" parent="1" vertex="1">
          <mxGeometry x="-170" y="160" width="100" height="40" as="geometry" />
        </mxCell>
        <mxCell id="A0ZDd1kq5BEuH8GeKNOG-1" style="edgeStyle=orthogonalEdgeStyle;rounded=0;orthogonalLoop=1;jettySize=auto;html=1;exitX=1;exitY=0.5;exitDx=0;exitDy=0;entryX=0.09;entryY=1;entryDx=0;entryDy=0;entryPerimeter=0;endArrow=none;endFill=0;" parent="1" source="JJHZLOXNKfBxK5Ap1BSC-78" target="mOBhRHJ4F4w7F-7LLjBb-1" edge="1">
          <mxGeometry relative="1" as="geometry" />
        </mxCell>
        <mxCell id="511yjethqVCvW-9Xqfhx-4" style="edgeStyle=orthogonalEdgeStyle;rounded=0;orthogonalLoop=1;jettySize=auto;html=1;exitX=0.5;exitY=0;exitDx=0;exitDy=0;entryX=1;entryY=0.75;entryDx=0;entryDy=0;endArrow=none;endFill=0;" parent="1" source="511yjethqVCvW-9Xqfhx-3" target="vKug7fDAOGzfk_ScSwMf-41" edge="1">
          <mxGeometry relative="1" as="geometry" />
        </mxCell>
        <mxCell id="511yjethqVCvW-9Xqfhx-3" value="date" style="ellipse;whiteSpace=wrap;html=1;align=center;" parent="1" vertex="1">
          <mxGeometry x="235" y="405" width="50" height="20" as="geometry" />
        </mxCell>
        <mxCell id="511yjethqVCvW-9Xqfhx-7" style="edgeStyle=orthogonalEdgeStyle;rounded=0;orthogonalLoop=1;jettySize=auto;html=1;exitX=0.5;exitY=0;exitDx=0;exitDy=0;entryX=0.25;entryY=1;entryDx=0;entryDy=0;endArrow=none;endFill=0;" parent="1" source="511yjethqVCvW-9Xqfhx-5" target="B9i8zO1DClTU-1D5Rl1U-68" edge="1">
          <mxGeometry relative="1" as="geometry" />
        </mxCell>
        <mxCell id="511yjethqVCvW-9Xqfhx-5" value="&lt;font style=&quot;font-size: 10px;&quot;&gt;ammenity name&lt;/font&gt;" style="ellipse;whiteSpace=wrap;html=1;align=center;" parent="1" vertex="1">
          <mxGeometry x="300" y="432.5" width="50" height="25" as="geometry" />
        </mxCell>
        <mxCell id="511yjethqVCvW-9Xqfhx-8" style="edgeStyle=orthogonalEdgeStyle;rounded=0;orthogonalLoop=1;jettySize=auto;html=1;exitX=0;exitY=0;exitDx=0;exitDy=0;entryX=1;entryY=0.75;entryDx=0;entryDy=0;endArrow=none;endFill=0;" parent="1" source="511yjethqVCvW-9Xqfhx-6" target="JJHZLOXNKfBxK5Ap1BSC-16" edge="1">
          <mxGeometry relative="1" as="geometry" />
        </mxCell>
        <mxCell id="511yjethqVCvW-9Xqfhx-6" value="&lt;font style=&quot;font-size: 10px;&quot;&gt;ammenity name&lt;/font&gt;" style="ellipse;whiteSpace=wrap;html=1;align=center;" parent="1" vertex="1">
          <mxGeometry x="710" y="430" width="50" height="25" as="geometry" />
        </mxCell>
        <mxCell id="511yjethqVCvW-9Xqfhx-25" style="edgeStyle=orthogonalEdgeStyle;rounded=0;orthogonalLoop=1;jettySize=auto;html=1;exitX=0.25;exitY=0;exitDx=0;exitDy=0;endArrow=none;endFill=0;" parent="1" source="511yjethqVCvW-9Xqfhx-10" target="511yjethqVCvW-9Xqfhx-23" edge="1">
          <mxGeometry relative="1" as="geometry" />
        </mxCell>
        <mxCell id="511yjethqVCvW-9Xqfhx-10" value="Inventory" style="shape=ext;margin=3;double=1;whiteSpace=wrap;html=1;align=center;" parent="1" vertex="1">
          <mxGeometry x="740" y="-220" width="100" height="40" as="geometry" />
        </mxCell>
        <mxCell id="511yjethqVCvW-9Xqfhx-15" value="" style="edgeStyle=orthogonalEdgeStyle;rounded=0;orthogonalLoop=1;jettySize=auto;html=1;endArrow=ERone;endFill=0;" parent="1" source="511yjethqVCvW-9Xqfhx-11" target="511yjethqVCvW-9Xqfhx-10" edge="1">
          <mxGeometry relative="1" as="geometry" />
        </mxCell>
        <mxCell id="511yjethqVCvW-9Xqfhx-18" style="edgeStyle=orthogonalEdgeStyle;rounded=0;orthogonalLoop=1;jettySize=auto;html=1;exitX=0;exitY=0.75;exitDx=0;exitDy=0;entryX=0.25;entryY=0;entryDx=0;entryDy=0;endArrow=ERzeroToOne;endFill=0;" parent="1" source="511yjethqVCvW-9Xqfhx-11" target="511yjethqVCvW-9Xqfhx-16" edge="1">
          <mxGeometry relative="1" as="geometry" />
        </mxCell>
        <mxCell id="511yjethqVCvW-9Xqfhx-11" value="" style="triangle;whiteSpace=wrap;html=1;rotation=-90;" parent="1" vertex="1">
          <mxGeometry x="760" y="-145" width="60" height="80" as="geometry" />
        </mxCell>
        <mxCell id="511yjethqVCvW-9Xqfhx-12" value="ISA" style="text;strokeColor=none;fillColor=none;spacingLeft=4;spacingRight=4;overflow=hidden;rotatable=0;points=[[0,0.5],[1,0.5]];portConstraint=eastwest;fontSize=12;whiteSpace=wrap;html=1;align=center;" parent="1" vertex="1">
          <mxGeometry x="770" y="-120" width="40" height="30" as="geometry" />
        </mxCell>
        <mxCell id="Phorr9IZyZ9SOU1izLDo-43" style="edgeStyle=orthogonalEdgeStyle;rounded=0;orthogonalLoop=1;jettySize=auto;html=1;exitX=0.75;exitY=0;exitDx=0;exitDy=0;endArrow=none;endFill=0;" parent="1" source="511yjethqVCvW-9Xqfhx-16" edge="1">
          <mxGeometry relative="1" as="geometry">
            <mxPoint x="865.4117647058824" y="-80" as="targetPoint" />
          </mxGeometry>
        </mxCell>
        <mxCell id="511yjethqVCvW-9Xqfhx-16" value="Hotel Inventory" style="shape=ext;margin=3;double=1;whiteSpace=wrap;html=1;align=center;" parent="1" vertex="1">
          <mxGeometry x="790" y="-50" width="100" height="40" as="geometry" />
        </mxCell>
        <mxCell id="511yjethqVCvW-9Xqfhx-19" value="Restaurant Inventory" style="shape=ext;margin=3;double=1;whiteSpace=wrap;html=1;align=center;" parent="1" vertex="1">
          <mxGeometry x="670" y="-50" width="100" height="40" as="geometry" />
        </mxCell>
        <mxCell id="511yjethqVCvW-9Xqfhx-21" style="edgeStyle=orthogonalEdgeStyle;rounded=0;orthogonalLoop=1;jettySize=auto;html=1;exitX=0;exitY=0.25;exitDx=0;exitDy=0;entryX=0.923;entryY=0.031;entryDx=0;entryDy=0;entryPerimeter=0;endArrow=ERzeroToOne;endFill=0;" parent="1" source="511yjethqVCvW-9Xqfhx-11" target="511yjethqVCvW-9Xqfhx-19" edge="1">
          <mxGeometry relative="1" as="geometry" />
        </mxCell>
        <mxCell id="511yjethqVCvW-9Xqfhx-22" value="item id" style="ellipse;whiteSpace=wrap;html=1;align=center;fontStyle=4;" parent="1" vertex="1">
          <mxGeometry x="830" y="-280" width="90" height="30" as="geometry" />
        </mxCell>
        <mxCell id="511yjethqVCvW-9Xqfhx-23" value="stock" style="ellipse;whiteSpace=wrap;html=1;align=center;" parent="1" vertex="1">
          <mxGeometry x="720" y="-280" width="80" height="30" as="geometry" />
        </mxCell>
        <mxCell id="511yjethqVCvW-9Xqfhx-24" style="edgeStyle=orthogonalEdgeStyle;rounded=0;orthogonalLoop=1;jettySize=auto;html=1;exitX=0.75;exitY=0;exitDx=0;exitDy=0;entryX=0.222;entryY=1;entryDx=0;entryDy=0;entryPerimeter=0;endArrow=none;endFill=0;" parent="1" source="511yjethqVCvW-9Xqfhx-10" target="511yjethqVCvW-9Xqfhx-22" edge="1">
          <mxGeometry relative="1" as="geometry" />
        </mxCell>
        <mxCell id="511yjethqVCvW-9Xqfhx-29" style="edgeStyle=orthogonalEdgeStyle;rounded=0;orthogonalLoop=1;jettySize=auto;html=1;exitX=0.5;exitY=1;exitDx=0;exitDy=0;entryX=0.75;entryY=0;entryDx=0;entryDy=0;endArrow=ERone;endFill=0;" parent="1" source="511yjethqVCvW-9Xqfhx-27" target="B9i8zO1DClTU-1D5Rl1U-62" edge="1">
          <mxGeometry relative="1" as="geometry">
            <mxPoint x="630" y="250" as="targetPoint" />
            <Array as="points">
              <mxPoint x="700" y="180" />
              <mxPoint x="631" y="180" />
              <mxPoint x="631" y="250" />
              <mxPoint x="405" y="250" />
            </Array>
          </mxGeometry>
        </mxCell>
        <mxCell id="511yjethqVCvW-9Xqfhx-27" value="has" style="shape=rhombus;perimeter=rhombusPerimeter;whiteSpace=wrap;html=1;align=center;" parent="1" vertex="1">
          <mxGeometry x="660" y="60" width="80" height="50" as="geometry" />
        </mxCell>
        <mxCell id="511yjethqVCvW-9Xqfhx-28" style="edgeStyle=orthogonalEdgeStyle;rounded=0;orthogonalLoop=1;jettySize=auto;html=1;exitX=0.5;exitY=0;exitDx=0;exitDy=0;entryX=0.128;entryY=1.059;entryDx=0;entryDy=0;entryPerimeter=0;endArrow=ERmandOne;endFill=0;" parent="1" source="511yjethqVCvW-9Xqfhx-27" target="511yjethqVCvW-9Xqfhx-16" edge="1">
          <mxGeometry relative="1" as="geometry" />
        </mxCell>
        <mxCell id="511yjethqVCvW-9Xqfhx-32" style="edgeStyle=orthogonalEdgeStyle;rounded=0;orthogonalLoop=1;jettySize=auto;html=1;exitX=0.5;exitY=0;exitDx=0;exitDy=0;entryX=0;entryY=0;entryDx=0;entryDy=0;endArrow=ERmandOne;endFill=0;" parent="1" source="511yjethqVCvW-9Xqfhx-31" target="511yjethqVCvW-9Xqfhx-19" edge="1">
          <mxGeometry relative="1" as="geometry">
            <mxPoint x="-240" y="-80" as="targetPoint" />
            <Array as="points">
              <mxPoint x="-240" y="73" />
              <mxPoint x="-210" y="73" />
              <mxPoint x="-210" y="-80" />
              <mxPoint x="670" y="-80" />
            </Array>
          </mxGeometry>
        </mxCell>
        <mxCell id="511yjethqVCvW-9Xqfhx-33" style="edgeStyle=orthogonalEdgeStyle;rounded=0;orthogonalLoop=1;jettySize=auto;html=1;exitX=0.5;exitY=1;exitDx=0;exitDy=0;entryX=0;entryY=0.75;entryDx=0;entryDy=0;endArrow=ERone;endFill=0;" parent="1" source="511yjethqVCvW-9Xqfhx-31" target="vKug7fDAOGzfk_ScSwMf-47" edge="1">
          <mxGeometry relative="1" as="geometry">
            <mxPoint x="-239.77777777777783" y="480" as="targetPoint" />
            <Array as="points">
              <mxPoint x="-240" y="480" />
            </Array>
          </mxGeometry>
        </mxCell>
        <mxCell id="511yjethqVCvW-9Xqfhx-31" value="has" style="shape=rhombus;perimeter=rhombusPerimeter;whiteSpace=wrap;html=1;align=center;" parent="1" vertex="1">
          <mxGeometry x="-300" y="225" width="120" height="60" as="geometry" />
        </mxCell>
        <mxCell id="511yjethqVCvW-9Xqfhx-34" value="minibar id" style="ellipse;whiteSpace=wrap;html=1;align=center;fontStyle=4;" parent="1" vertex="1">
          <mxGeometry x="1080" y="310" width="100" height="40" as="geometry" />
        </mxCell>
        <mxCell id="511yjethqVCvW-9Xqfhx-35" value="Bill" style="shape=ext;margin=3;double=1;whiteSpace=wrap;html=1;align=center;" parent="1" vertex="1">
          <mxGeometry x="1225" y="20" width="100" height="40" as="geometry" />
        </mxCell>
        <mxCell id="511yjethqVCvW-9Xqfhx-38" style="edgeStyle=orthogonalEdgeStyle;rounded=0;orthogonalLoop=1;jettySize=auto;html=1;exitX=0;exitY=0.5;exitDx=0;exitDy=0;entryX=1;entryY=0.75;entryDx=0;entryDy=0;endArrow=ERone;endFill=0;" parent="1" source="511yjethqVCvW-9Xqfhx-36" target="B9i8zO1DClTU-1D5Rl1U-6" edge="1">
          <mxGeometry relative="1" as="geometry">
            <mxPoint x="1010" y="140" as="targetPoint" />
            <Array as="points">
              <mxPoint x="1011" y="40" />
              <mxPoint x="1011" y="140" />
            </Array>
          </mxGeometry>
        </mxCell>
        <mxCell id="511yjethqVCvW-9Xqfhx-39" style="edgeStyle=orthogonalEdgeStyle;rounded=0;orthogonalLoop=1;jettySize=auto;html=1;exitX=1;exitY=0.5;exitDx=0;exitDy=0;entryX=0;entryY=0.5;entryDx=0;entryDy=0;endArrow=ERmandOne;endFill=0;" parent="1" source="511yjethqVCvW-9Xqfhx-36" target="511yjethqVCvW-9Xqfhx-35" edge="1">
          <mxGeometry relative="1" as="geometry" />
        </mxCell>
        <mxCell id="511yjethqVCvW-9Xqfhx-36" value="has" style="shape=rhombus;perimeter=rhombusPerimeter;whiteSpace=wrap;html=1;align=center;" parent="1" vertex="1">
          <mxGeometry x="1040" y="15" width="100" height="50" as="geometry" />
        </mxCell>
        <mxCell id="511yjethqVCvW-9Xqfhx-42" style="edgeStyle=orthogonalEdgeStyle;rounded=0;orthogonalLoop=1;jettySize=auto;html=1;exitX=0.5;exitY=1;exitDx=0;exitDy=0;entryX=0.5;entryY=0;entryDx=0;entryDy=0;endArrow=none;endFill=0;" parent="1" source="511yjethqVCvW-9Xqfhx-41" target="JJHZLOXNKfBxK5Ap1BSC-2" edge="1">
          <mxGeometry relative="1" as="geometry" />
        </mxCell>
        <mxCell id="511yjethqVCvW-9Xqfhx-41" value="price" style="ellipse;whiteSpace=wrap;html=1;align=center;" parent="1" vertex="1">
          <mxGeometry x="980" y="295" width="80" height="25" as="geometry" />
        </mxCell>
        <mxCell id="511yjethqVCvW-9Xqfhx-44" style="edgeStyle=orthogonalEdgeStyle;rounded=0;orthogonalLoop=1;jettySize=auto;html=1;exitX=0.5;exitY=1;exitDx=0;exitDy=0;entryX=0.5;entryY=0;entryDx=0;entryDy=0;endArrow=none;endFill=0;" parent="1" source="511yjethqVCvW-9Xqfhx-43" target="511yjethqVCvW-9Xqfhx-35" edge="1">
          <mxGeometry relative="1" as="geometry" />
        </mxCell>
        <mxCell id="511yjethqVCvW-9Xqfhx-43" value="bill id" style="ellipse;whiteSpace=wrap;html=1;align=center;fontStyle=4;" parent="1" vertex="1">
          <mxGeometry x="1230" y="-40" width="100" height="40" as="geometry" />
        </mxCell>
        <mxCell id="511yjethqVCvW-9Xqfhx-46" style="edgeStyle=orthogonalEdgeStyle;rounded=0;orthogonalLoop=1;jettySize=auto;html=1;exitX=0;exitY=0.5;exitDx=0;exitDy=0;entryX=1;entryY=0.5;entryDx=0;entryDy=0;endArrow=none;endFill=0;" parent="1" source="511yjethqVCvW-9Xqfhx-45" target="511yjethqVCvW-9Xqfhx-35" edge="1">
          <mxGeometry relative="1" as="geometry" />
        </mxCell>
        <mxCell id="511yjethqVCvW-9Xqfhx-45" value="&lt;span style=&quot;border-bottom: 1px dotted&quot;&gt;minibar id&lt;/span&gt;" style="ellipse;whiteSpace=wrap;html=1;align=center;" parent="1" vertex="1">
          <mxGeometry x="1360" y="30" width="100" height="40" as="geometry" />
        </mxCell>
        <mxCell id="511yjethqVCvW-9Xqfhx-47" value="Event" style="shape=ext;margin=3;double=1;whiteSpace=wrap;html=1;align=center;" parent="1" vertex="1">
          <mxGeometry x="-80" y="-30" width="100" height="40" as="geometry" />
        </mxCell>
        <mxCell id="511yjethqVCvW-9Xqfhx-49" style="edgeStyle=orthogonalEdgeStyle;rounded=0;orthogonalLoop=1;jettySize=auto;html=1;exitX=0.5;exitY=0;exitDx=0;exitDy=0;entryX=1;entryY=1;entryDx=0;entryDy=0;endArrow=ERmandOne;endFill=0;" parent="1" source="511yjethqVCvW-9Xqfhx-48" target="511yjethqVCvW-9Xqfhx-47" edge="1">
          <mxGeometry relative="1" as="geometry" />
        </mxCell>
        <mxCell id="511yjethqVCvW-9Xqfhx-52" style="edgeStyle=orthogonalEdgeStyle;rounded=0;orthogonalLoop=1;jettySize=auto;html=1;exitX=0.5;exitY=1;exitDx=0;exitDy=0;endArrow=ERone;endFill=0;" parent="1" source="511yjethqVCvW-9Xqfhx-48" target="B9i8zO1DClTU-1D5Rl1U-62" edge="1">
          <mxGeometry relative="1" as="geometry">
            <mxPoint x="350" y="210" as="targetPoint" />
            <Array as="points">
              <mxPoint x="200" y="105" />
              <mxPoint x="200" y="190" />
              <mxPoint x="360" y="190" />
            </Array>
          </mxGeometry>
        </mxCell>
        <mxCell id="511yjethqVCvW-9Xqfhx-48" value="hosted" style="shape=rhombus;perimeter=rhombusPerimeter;whiteSpace=wrap;html=1;align=center;" parent="1" vertex="1">
          <mxGeometry x="100" y="75" width="80" height="30" as="geometry" />
        </mxCell>
        <mxCell id="511yjethqVCvW-9Xqfhx-53" value="event id" style="ellipse;whiteSpace=wrap;html=1;align=center;fontStyle=4;" parent="1" vertex="1">
          <mxGeometry x="-180" y="-60" width="100" height="40" as="geometry" />
        </mxCell>
        <mxCell id="511yjethqVCvW-9Xqfhx-54" style="edgeStyle=orthogonalEdgeStyle;rounded=0;orthogonalLoop=1;jettySize=auto;html=1;exitX=1;exitY=0.5;exitDx=0;exitDy=0;entryX=0.102;entryY=0.041;entryDx=0;entryDy=0;entryPerimeter=0;endArrow=none;endFill=0;" parent="1" source="511yjethqVCvW-9Xqfhx-53" target="511yjethqVCvW-9Xqfhx-47" edge="1">
          <mxGeometry relative="1" as="geometry" />
        </mxCell>
        <mxCell id="511yjethqVCvW-9Xqfhx-56" style="edgeStyle=orthogonalEdgeStyle;rounded=0;orthogonalLoop=1;jettySize=auto;html=1;exitX=1;exitY=0;exitDx=0;exitDy=0;entryX=0;entryY=1;entryDx=0;entryDy=0;endArrow=none;endFill=0;" parent="1" source="511yjethqVCvW-9Xqfhx-55" target="511yjethqVCvW-9Xqfhx-47" edge="1">
          <mxGeometry relative="1" as="geometry" />
        </mxCell>
        <mxCell id="511yjethqVCvW-9Xqfhx-55" value="date" style="ellipse;whiteSpace=wrap;html=1;align=center;" parent="1" vertex="1">
          <mxGeometry x="-190" y="20" width="100" height="40" as="geometry" />
        </mxCell>
        <mxCell id="511yjethqVCvW-9Xqfhx-58" style="edgeStyle=orthogonalEdgeStyle;rounded=0;orthogonalLoop=1;jettySize=auto;html=1;exitX=1;exitY=0.5;exitDx=0;exitDy=0;entryX=0;entryY=0.75;entryDx=0;entryDy=0;endArrow=none;endFill=0;" parent="1" source="511yjethqVCvW-9Xqfhx-57" target="511yjethqVCvW-9Xqfhx-47" edge="1">
          <mxGeometry relative="1" as="geometry" />
        </mxCell>
        <mxCell id="511yjethqVCvW-9Xqfhx-57" value="num of attendees" style="ellipse;whiteSpace=wrap;html=1;align=center;" parent="1" vertex="1">
          <mxGeometry x="-190" y="-20" width="100" height="40" as="geometry" />
        </mxCell>
        <mxCell id="511yjethqVCvW-9Xqfhx-60" style="edgeStyle=orthogonalEdgeStyle;rounded=0;orthogonalLoop=1;jettySize=auto;html=1;exitX=0;exitY=0.5;exitDx=0;exitDy=0;entryX=0.5;entryY=0;entryDx=0;entryDy=0;endArrow=none;endFill=0;" parent="1" source="511yjethqVCvW-9Xqfhx-59" target="511yjethqVCvW-9Xqfhx-47" edge="1">
          <mxGeometry relative="1" as="geometry" />
        </mxCell>
        <mxCell id="511yjethqVCvW-9Xqfhx-59" value="&lt;span style=&quot;border-bottom: 1px dotted&quot;&gt;hotel banch id&lt;/span&gt;" style="ellipse;whiteSpace=wrap;html=1;align=center;" parent="1" vertex="1">
          <mxGeometry x="-20" y="-70" width="100" height="40" as="geometry" />
        </mxCell>
        <mxCell id="511yjethqVCvW-9Xqfhx-63" style="edgeStyle=orthogonalEdgeStyle;rounded=0;orthogonalLoop=1;jettySize=auto;html=1;exitX=0.5;exitY=1;exitDx=0;exitDy=0;entryX=0;entryY=0;entryDx=0;entryDy=0;endArrow=ERone;endFill=0;" parent="1" source="511yjethqVCvW-9Xqfhx-61" target="B9i8zO1DClTU-1D5Rl1U-43" edge="1">
          <mxGeometry relative="1" as="geometry">
            <mxPoint x="650" y="250" as="targetPoint" />
            <Array as="points">
              <mxPoint x="598" y="-50" />
              <mxPoint x="661" y="-50" />
              <mxPoint x="661" y="30" />
              <mxPoint x="650" y="30" />
              <mxPoint x="650" y="260" />
            </Array>
          </mxGeometry>
        </mxCell>
        <mxCell id="511yjethqVCvW-9Xqfhx-66" style="edgeStyle=orthogonalEdgeStyle;rounded=0;orthogonalLoop=1;jettySize=auto;html=1;exitX=0.5;exitY=0;exitDx=0;exitDy=0;entryX=0.5;entryY=1;entryDx=0;entryDy=0;endArrow=ERzeroToMany;endFill=0;" parent="1" source="511yjethqVCvW-9Xqfhx-61" target="511yjethqVCvW-9Xqfhx-64" edge="1">
          <mxGeometry relative="1" as="geometry" />
        </mxCell>
        <mxCell id="511yjethqVCvW-9Xqfhx-61" value="can order" style="shape=rhombus;perimeter=rhombusPerimeter;whiteSpace=wrap;html=1;align=center;" parent="1" vertex="1">
          <mxGeometry x="545" y="-170" width="105" height="50" as="geometry" />
        </mxCell>
        <mxCell id="511yjethqVCvW-9Xqfhx-64" value="Room Service" style="shape=ext;margin=3;double=1;whiteSpace=wrap;html=1;align=center;" parent="1" vertex="1">
          <mxGeometry x="545" y="-270" width="100" height="40" as="geometry" />
        </mxCell>
        <mxCell id="511yjethqVCvW-9Xqfhx-72" style="edgeStyle=orthogonalEdgeStyle;rounded=0;orthogonalLoop=1;jettySize=auto;html=1;exitX=1;exitY=1;exitDx=0;exitDy=0;endArrow=none;endFill=0;" parent="1" source="511yjethqVCvW-9Xqfhx-67" target="511yjethqVCvW-9Xqfhx-64" edge="1">
          <mxGeometry relative="1" as="geometry" />
        </mxCell>
        <mxCell id="511yjethqVCvW-9Xqfhx-67" value="room service id" style="ellipse;whiteSpace=wrap;html=1;align=center;fontStyle=4;" parent="1" vertex="1">
          <mxGeometry x="480" y="-360" width="100" height="40" as="geometry" />
        </mxCell>
        <mxCell id="511yjethqVCvW-9Xqfhx-68" value="&lt;span style=&quot;border-bottom: 1px dotted&quot;&gt;room id&lt;/span&gt;" style="ellipse;whiteSpace=wrap;html=1;align=center;" parent="1" vertex="1">
          <mxGeometry x="590" y="-360" width="100" height="40" as="geometry" />
        </mxCell>
        <mxCell id="511yjethqVCvW-9Xqfhx-73" style="edgeStyle=orthogonalEdgeStyle;rounded=0;orthogonalLoop=1;jettySize=auto;html=1;exitX=1;exitY=1;exitDx=0;exitDy=0;entryX=0;entryY=0.25;entryDx=0;entryDy=0;endArrow=none;endFill=0;" parent="1" source="511yjethqVCvW-9Xqfhx-70" target="511yjethqVCvW-9Xqfhx-64" edge="1">
          <mxGeometry relative="1" as="geometry" />
        </mxCell>
        <mxCell id="511yjethqVCvW-9Xqfhx-70" value="price" style="ellipse;whiteSpace=wrap;html=1;align=center;" parent="1" vertex="1">
          <mxGeometry x="425" y="-300" width="100" height="40" as="geometry" />
        </mxCell>
        <mxCell id="511yjethqVCvW-9Xqfhx-71" style="edgeStyle=orthogonalEdgeStyle;rounded=0;orthogonalLoop=1;jettySize=auto;html=1;exitX=0.5;exitY=1;exitDx=0;exitDy=0;entryX=0.926;entryY=0.115;entryDx=0;entryDy=0;entryPerimeter=0;endArrow=none;endFill=0;" parent="1" source="511yjethqVCvW-9Xqfhx-68" target="511yjethqVCvW-9Xqfhx-64" edge="1">
          <mxGeometry relative="1" as="geometry" />
        </mxCell>
        <mxCell id="511yjethqVCvW-9Xqfhx-75" value="schedule id" style="ellipse;whiteSpace=wrap;html=1;align=center;fontStyle=4;" parent="1" vertex="1">
          <mxGeometry x="-210" y="105" width="100" height="40" as="geometry" />
        </mxCell>
        <mxCell id="511yjethqVCvW-9Xqfhx-76" style="edgeStyle=orthogonalEdgeStyle;rounded=0;orthogonalLoop=1;jettySize=auto;html=1;exitX=0.25;exitY=0;exitDx=0;exitDy=0;entryX=0.595;entryY=1.018;entryDx=0;entryDy=0;entryPerimeter=0;endArrow=none;endFill=0;" parent="1" source="vKug7fDAOGzfk_ScSwMf-96" target="511yjethqVCvW-9Xqfhx-75" edge="1">
          <mxGeometry relative="1" as="geometry" />
        </mxCell>
        <mxCell id="511yjethqVCvW-9Xqfhx-77" value="&lt;span style=&quot;border-bottom: 1px dotted&quot;&gt;employee id&lt;/span&gt;" style="ellipse;whiteSpace=wrap;html=1;align=center;" parent="1" vertex="1">
          <mxGeometry x="-180" y="210" width="100" height="40" as="geometry" />
        </mxCell>
        <mxCell id="511yjethqVCvW-9Xqfhx-78" style="edgeStyle=orthogonalEdgeStyle;rounded=0;orthogonalLoop=1;jettySize=auto;html=1;exitX=0.5;exitY=0;exitDx=0;exitDy=0;entryX=0.402;entryY=1.031;entryDx=0;entryDy=0;entryPerimeter=0;endArrow=none;endFill=0;" parent="1" source="511yjethqVCvW-9Xqfhx-77" target="vKug7fDAOGzfk_ScSwMf-96" edge="1">
          <mxGeometry relative="1" as="geometry" />
        </mxCell>
        <mxCell id="511yjethqVCvW-9Xqfhx-79" value="Maintenance" style="rounded=1;arcSize=10;whiteSpace=wrap;html=1;align=center;" parent="1" vertex="1">
          <mxGeometry x="645" y="750" width="85" height="30" as="geometry" />
        </mxCell>
        <mxCell id="511yjethqVCvW-9Xqfhx-80" value="Maintenance Request" style="shape=ext;margin=3;double=1;whiteSpace=wrap;html=1;align=center;" parent="1" vertex="1">
          <mxGeometry x="920" y="730" width="100" height="40" as="geometry" />
        </mxCell>
        <mxCell id="511yjethqVCvW-9Xqfhx-83" style="edgeStyle=orthogonalEdgeStyle;rounded=0;orthogonalLoop=1;jettySize=auto;html=1;exitX=0;exitY=0.5;exitDx=0;exitDy=0;entryX=1;entryY=0.75;entryDx=0;entryDy=0;endArrow=ERone;endFill=0;" parent="1" source="511yjethqVCvW-9Xqfhx-81" target="511yjethqVCvW-9Xqfhx-79" edge="1">
          <mxGeometry relative="1" as="geometry" />
        </mxCell>
        <mxCell id="511yjethqVCvW-9Xqfhx-84" style="edgeStyle=orthogonalEdgeStyle;rounded=0;orthogonalLoop=1;jettySize=auto;html=1;exitX=1;exitY=0.5;exitDx=0;exitDy=0;entryX=0;entryY=0.5;entryDx=0;entryDy=0;endArrow=ERoneToMany;endFill=0;" parent="1" source="511yjethqVCvW-9Xqfhx-81" target="511yjethqVCvW-9Xqfhx-80" edge="1">
          <mxGeometry relative="1" as="geometry" />
        </mxCell>
        <mxCell id="511yjethqVCvW-9Xqfhx-81" value="completes" style="shape=rhombus;perimeter=rhombusPerimeter;whiteSpace=wrap;html=1;align=center;" parent="1" vertex="1">
          <mxGeometry x="780" y="740" width="90" height="40" as="geometry" />
        </mxCell>
        <mxCell id="511yjethqVCvW-9Xqfhx-86" style="edgeStyle=orthogonalEdgeStyle;rounded=0;orthogonalLoop=1;jettySize=auto;html=1;exitX=0.5;exitY=1;exitDx=0;exitDy=0;entryX=1;entryY=0.75;entryDx=0;entryDy=0;endArrow=ERone;endFill=0;" parent="1" source="511yjethqVCvW-9Xqfhx-85" target="511yjethqVCvW-9Xqfhx-80" edge="1">
          <mxGeometry relative="1" as="geometry" />
        </mxCell>
        <mxCell id="511yjethqVCvW-9Xqfhx-87" style="edgeStyle=orthogonalEdgeStyle;rounded=0;orthogonalLoop=1;jettySize=auto;html=1;exitX=0.5;exitY=0;exitDx=0;exitDy=0;entryX=1;entryY=1;entryDx=0;entryDy=0;endArrow=ERzeroToMany;endFill=0;" parent="1" source="511yjethqVCvW-9Xqfhx-85" target="B9i8zO1DClTU-1D5Rl1U-43" edge="1">
          <mxGeometry relative="1" as="geometry">
            <mxPoint x="920" y="310" as="targetPoint" />
            <Array as="points">
              <mxPoint x="1310" y="280" />
              <mxPoint x="920" y="280" />
              <mxPoint x="920" y="300" />
            </Array>
          </mxGeometry>
        </mxCell>
        <mxCell id="511yjethqVCvW-9Xqfhx-85" value="belongs to&amp;nbsp;" style="shape=rhombus;perimeter=rhombusPerimeter;whiteSpace=wrap;html=1;align=center;" parent="1" vertex="1">
          <mxGeometry x="1250" y="413" width="120" height="60" as="geometry" />
        </mxCell>
        <mxCell id="511yjethqVCvW-9Xqfhx-89" style="edgeStyle=orthogonalEdgeStyle;rounded=0;orthogonalLoop=1;jettySize=auto;html=1;exitX=0.5;exitY=0;exitDx=0;exitDy=0;entryX=0.5;entryY=1;entryDx=0;entryDy=0;endArrow=none;endFill=0;" parent="1" source="511yjethqVCvW-9Xqfhx-88" target="511yjethqVCvW-9Xqfhx-80" edge="1">
          <mxGeometry relative="1" as="geometry" />
        </mxCell>
        <mxCell id="511yjethqVCvW-9Xqfhx-88" value="maintenance request id" style="ellipse;whiteSpace=wrap;html=1;align=center;fontStyle=4;" parent="1" vertex="1">
          <mxGeometry x="920" y="810" width="100" height="40" as="geometry" />
        </mxCell>
        <mxCell id="511yjethqVCvW-9Xqfhx-91" style="edgeStyle=orthogonalEdgeStyle;rounded=0;orthogonalLoop=1;jettySize=auto;html=1;exitX=0;exitY=0;exitDx=0;exitDy=0;entryX=0.75;entryY=1;entryDx=0;entryDy=0;endArrow=none;endFill=0;" parent="1" source="511yjethqVCvW-9Xqfhx-90" target="511yjethqVCvW-9Xqfhx-80" edge="1">
          <mxGeometry relative="1" as="geometry" />
        </mxCell>
        <mxCell id="511yjethqVCvW-9Xqfhx-90" value="&lt;span style=&quot;border-bottom: 1px dotted&quot;&gt;emmployee id&lt;/span&gt;" style="ellipse;whiteSpace=wrap;html=1;align=center;" parent="1" vertex="1">
          <mxGeometry x="1030" y="800" width="100" height="40" as="geometry" />
        </mxCell>
        <mxCell id="511yjethqVCvW-9Xqfhx-93" style="edgeStyle=orthogonalEdgeStyle;rounded=0;orthogonalLoop=1;jettySize=auto;html=1;exitX=0.5;exitY=0;exitDx=0;exitDy=0;entryX=0.25;entryY=1;entryDx=0;entryDy=0;endArrow=none;endFill=0;" parent="1" source="511yjethqVCvW-9Xqfhx-92" target="511yjethqVCvW-9Xqfhx-80" edge="1">
          <mxGeometry relative="1" as="geometry" />
        </mxCell>
        <mxCell id="511yjethqVCvW-9Xqfhx-92" value="&lt;span style=&quot;border-bottom: 1px dotted&quot;&gt;room id&lt;/span&gt;" style="ellipse;whiteSpace=wrap;html=1;align=center;" parent="1" vertex="1">
          <mxGeometry x="805" y="810" width="100" height="40" as="geometry" />
        </mxCell>
        <mxCell id="511yjethqVCvW-9Xqfhx-95" style="edgeStyle=orthogonalEdgeStyle;rounded=0;orthogonalLoop=1;jettySize=auto;html=1;exitX=0;exitY=0.5;exitDx=0;exitDy=0;entryX=1;entryY=1;entryDx=0;entryDy=0;endArrow=none;endFill=0;" parent="1" source="511yjethqVCvW-9Xqfhx-94" target="511yjethqVCvW-9Xqfhx-80" edge="1">
          <mxGeometry relative="1" as="geometry" />
        </mxCell>
        <mxCell id="511yjethqVCvW-9Xqfhx-94" value="priority level" style="ellipse;whiteSpace=wrap;html=1;align=center;" parent="1" vertex="1">
          <mxGeometry x="1120" y="770" width="100" height="40" as="geometry" />
        </mxCell>
        <mxCell id="511yjethqVCvW-9Xqfhx-97" value="Predictive Pricing" style="shape=ext;margin=3;double=1;whiteSpace=wrap;html=1;align=center;" parent="1" vertex="1">
          <mxGeometry x="990" y="-210" width="100" height="40" as="geometry" />
        </mxCell>
        <mxCell id="511yjethqVCvW-9Xqfhx-100" style="edgeStyle=orthogonalEdgeStyle;rounded=0;orthogonalLoop=1;jettySize=auto;html=1;exitX=0.5;exitY=1;exitDx=0;exitDy=0;entryX=0.176;entryY=-0.054;entryDx=0;entryDy=0;entryPerimeter=0;endArrow=ERone;endFill=0;" parent="1" source="511yjethqVCvW-9Xqfhx-98" target="B9i8zO1DClTU-1D5Rl1U-43" edge="1">
          <mxGeometry relative="1" as="geometry">
            <mxPoint x="670" y="240" as="targetPoint" />
            <Array as="points">
              <mxPoint x="965" />
              <mxPoint x="760" />
              <mxPoint x="760" y="150" />
              <mxPoint x="680" y="150" />
              <mxPoint x="680" y="240" />
              <mxPoint x="698" y="240" />
            </Array>
          </mxGeometry>
        </mxCell>
        <mxCell id="511yjethqVCvW-9Xqfhx-98" value="is priced at" style="shape=rhombus;perimeter=rhombusPerimeter;whiteSpace=wrap;html=1;align=center;" parent="1" vertex="1">
          <mxGeometry x="905" y="-120" width="120" height="60" as="geometry" />
        </mxCell>
        <mxCell id="511yjethqVCvW-9Xqfhx-99" style="edgeStyle=orthogonalEdgeStyle;rounded=0;orthogonalLoop=1;jettySize=auto;html=1;exitX=0.5;exitY=0;exitDx=0;exitDy=0;entryX=0.096;entryY=0.953;entryDx=0;entryDy=0;entryPerimeter=0;endArrow=ERoneToMany;endFill=0;" parent="1" source="511yjethqVCvW-9Xqfhx-98" target="511yjethqVCvW-9Xqfhx-97" edge="1">
          <mxGeometry relative="1" as="geometry" />
        </mxCell>
        <mxCell id="Phorr9IZyZ9SOU1izLDo-4" style="edgeStyle=orthogonalEdgeStyle;rounded=0;orthogonalLoop=1;jettySize=auto;html=1;exitX=1;exitY=0;exitDx=0;exitDy=0;entryX=0;entryY=0.75;entryDx=0;entryDy=0;endArrow=none;endFill=0;" parent="1" source="Phorr9IZyZ9SOU1izLDo-3" target="mOBhRHJ4F4w7F-7LLjBb-1" edge="1">
          <mxGeometry relative="1" as="geometry" />
        </mxCell>
        <mxCell id="Phorr9IZyZ9SOU1izLDo-3" value="&lt;span style=&quot;border-bottom: 1px dotted&quot;&gt;&lt;font style=&quot;font-size: 11px;&quot;&gt;supervisor id&lt;/font&gt;&lt;/span&gt;" style="ellipse;whiteSpace=wrap;html=1;align=center;" parent="1" vertex="1">
          <mxGeometry x="570" y="505" width="70" height="25" as="geometry" />
        </mxCell>
        <mxCell id="Phorr9IZyZ9SOU1izLDo-5" value="supervises" style="shape=rhombus;perimeter=rhombusPerimeter;whiteSpace=wrap;html=1;align=center;" parent="1" vertex="1">
          <mxGeometry x="525" y="555" width="95" height="35" as="geometry" />
        </mxCell>
        <mxCell id="Phorr9IZyZ9SOU1izLDo-7" style="edgeStyle=orthogonalEdgeStyle;rounded=0;orthogonalLoop=1;jettySize=auto;html=1;exitX=0.5;exitY=1;exitDx=0;exitDy=0;entryX=0.167;entryY=1;entryDx=0;entryDy=0;entryPerimeter=0;endArrow=none;endFill=0;" parent="1" source="Phorr9IZyZ9SOU1izLDo-5" target="mOBhRHJ4F4w7F-7LLjBb-1" edge="1">
          <mxGeometry relative="1" as="geometry" />
        </mxCell>
        <mxCell id="Phorr9IZyZ9SOU1izLDo-9" style="edgeStyle=orthogonalEdgeStyle;rounded=0;orthogonalLoop=1;jettySize=auto;html=1;exitX=0.5;exitY=1;exitDx=0;exitDy=0;entryX=0.75;entryY=0;entryDx=0;entryDy=0;endArrow=none;endFill=0;" parent="1" source="Phorr9IZyZ9SOU1izLDo-8" target="511yjethqVCvW-9Xqfhx-97" edge="1">
          <mxGeometry relative="1" as="geometry" />
        </mxCell>
        <mxCell id="Phorr9IZyZ9SOU1izLDo-8" value="pricing id" style="ellipse;whiteSpace=wrap;html=1;align=center;fontStyle=4;" parent="1" vertex="1">
          <mxGeometry x="1010" y="-285" width="100" height="40" as="geometry" />
        </mxCell>
        <mxCell id="Phorr9IZyZ9SOU1izLDo-11" style="edgeStyle=orthogonalEdgeStyle;rounded=0;orthogonalLoop=1;jettySize=auto;html=1;exitX=0;exitY=0.5;exitDx=0;exitDy=0;entryX=1;entryY=0;entryDx=0;entryDy=0;endArrow=none;endFill=0;" parent="1" source="Phorr9IZyZ9SOU1izLDo-10" target="511yjethqVCvW-9Xqfhx-97" edge="1">
          <mxGeometry relative="1" as="geometry" />
        </mxCell>
        <mxCell id="Phorr9IZyZ9SOU1izLDo-10" value="&lt;span style=&quot;border-bottom: 1px dotted&quot;&gt;room id&lt;/span&gt;" style="ellipse;whiteSpace=wrap;html=1;align=center;" parent="1" vertex="1">
          <mxGeometry x="1110" y="-260" width="100" height="40" as="geometry" />
        </mxCell>
        <mxCell id="Phorr9IZyZ9SOU1izLDo-15" value="&lt;span style=&quot;border-bottom: 1px dotted&quot;&gt;role id&lt;/span&gt;" style="ellipse;whiteSpace=wrap;html=1;align=center;" parent="1" vertex="1">
          <mxGeometry x="730" y="500" width="60" height="20" as="geometry" />
        </mxCell>
        <mxCell id="Phorr9IZyZ9SOU1izLDo-16" style="edgeStyle=orthogonalEdgeStyle;rounded=0;orthogonalLoop=1;jettySize=auto;html=1;exitX=0;exitY=0.5;exitDx=0;exitDy=0;entryX=0.921;entryY=0.926;entryDx=0;entryDy=0;entryPerimeter=0;endArrow=none;endFill=0;" parent="1" source="Phorr9IZyZ9SOU1izLDo-15" target="mOBhRHJ4F4w7F-7LLjBb-1" edge="1">
          <mxGeometry relative="1" as="geometry" />
        </mxCell>
        <mxCell id="Phorr9IZyZ9SOU1izLDo-18" style="edgeStyle=orthogonalEdgeStyle;rounded=0;orthogonalLoop=1;jettySize=auto;html=1;exitX=0.5;exitY=1;exitDx=0;exitDy=0;endArrow=none;endFill=0;" parent="1" source="Phorr9IZyZ9SOU1izLDo-17" edge="1">
          <mxGeometry relative="1" as="geometry">
            <mxPoint x="430" y="300" as="targetPoint" />
          </mxGeometry>
        </mxCell>
        <mxCell id="Phorr9IZyZ9SOU1izLDo-17" value="&lt;span style=&quot;border-bottom: 1px dotted&quot;&gt;&lt;font style=&quot;font-size: 8px;&quot;&gt;linen service id&lt;/font&gt;&lt;/span&gt;" style="ellipse;whiteSpace=wrap;html=1;align=center;" parent="1" vertex="1">
          <mxGeometry x="425" y="255" width="60" height="20" as="geometry" />
        </mxCell>
        <mxCell id="Phorr9IZyZ9SOU1izLDo-20" style="edgeStyle=orthogonalEdgeStyle;rounded=0;orthogonalLoop=1;jettySize=auto;html=1;exitX=0.5;exitY=1;exitDx=0;exitDy=0;entryX=0.25;entryY=0;entryDx=0;entryDy=0;endArrow=none;endFill=0;" parent="1" source="Phorr9IZyZ9SOU1izLDo-19" target="B9i8zO1DClTU-1D5Rl1U-6" edge="1">
          <mxGeometry relative="1" as="geometry" />
        </mxCell>
        <mxCell id="Phorr9IZyZ9SOU1izLDo-19" value="&lt;span style=&quot;border-bottom: 1px dotted&quot;&gt;guest id&lt;/span&gt;" style="ellipse;whiteSpace=wrap;html=1;align=center;" parent="1" vertex="1">
          <mxGeometry x="770" y="80" width="60" height="20" as="geometry" />
        </mxCell>
        <mxCell id="Phorr9IZyZ9SOU1izLDo-22" style="edgeStyle=orthogonalEdgeStyle;rounded=0;orthogonalLoop=1;jettySize=auto;html=1;exitX=0;exitY=0;exitDx=0;exitDy=0;entryX=1;entryY=1;entryDx=0;entryDy=0;endArrow=none;endFill=0;" parent="1" source="Phorr9IZyZ9SOU1izLDo-21" target="B9i8zO1DClTU-1D5Rl1U-6" edge="1">
          <mxGeometry relative="1" as="geometry" />
        </mxCell>
        <mxCell id="Phorr9IZyZ9SOU1izLDo-21" value="&lt;span style=&quot;border-bottom: 1px dotted&quot;&gt;review id&lt;/span&gt;" style="ellipse;whiteSpace=wrap;html=1;align=center;" parent="1" vertex="1">
          <mxGeometry x="890" y="155" width="60" height="15" as="geometry" />
        </mxCell>
        <mxCell id="Phorr9IZyZ9SOU1izLDo-24" style="edgeStyle=orthogonalEdgeStyle;rounded=0;orthogonalLoop=1;jettySize=auto;html=1;exitX=1;exitY=0.5;exitDx=0;exitDy=0;entryX=0;entryY=0.75;entryDx=0;entryDy=0;endArrow=none;endFill=0;" parent="1" source="Phorr9IZyZ9SOU1izLDo-23" target="B9i8zO1DClTU-1D5Rl1U-34" edge="1">
          <mxGeometry relative="1" as="geometry" />
        </mxCell>
        <mxCell id="Phorr9IZyZ9SOU1izLDo-23" value="&lt;span style=&quot;border-bottom: 1px dotted&quot;&gt;guest id&lt;/span&gt;" style="ellipse;whiteSpace=wrap;html=1;align=center;" parent="1" vertex="1">
          <mxGeometry x="-60" y="130" width="70" height="20" as="geometry" />
        </mxCell>
        <mxCell id="Phorr9IZyZ9SOU1izLDo-26" style="edgeStyle=orthogonalEdgeStyle;rounded=0;orthogonalLoop=1;jettySize=auto;html=1;exitX=1;exitY=0.5;exitDx=0;exitDy=0;entryX=0;entryY=0.5;entryDx=0;entryDy=0;endArrow=none;endFill=0;" parent="1" source="Phorr9IZyZ9SOU1izLDo-25" target="JJHZLOXNKfBxK5Ap1BSC-47" edge="1">
          <mxGeometry relative="1" as="geometry" />
        </mxCell>
        <mxCell id="Phorr9IZyZ9SOU1izLDo-25" value="&lt;span style=&quot;border-bottom: 1px dotted&quot;&gt;hotel branch id&lt;/span&gt;" style="ellipse;whiteSpace=wrap;html=1;align=center;" parent="1" vertex="1">
          <mxGeometry x="-75" y="255" width="100" height="40" as="geometry" />
        </mxCell>
        <mxCell id="Phorr9IZyZ9SOU1izLDo-28" style="edgeStyle=orthogonalEdgeStyle;rounded=0;orthogonalLoop=1;jettySize=auto;html=1;exitX=1;exitY=0.5;exitDx=0;exitDy=0;entryX=0.5;entryY=1;entryDx=0;entryDy=0;endArrow=none;endFill=0;" parent="1" source="Phorr9IZyZ9SOU1izLDo-27" target="JJHZLOXNKfBxK5Ap1BSC-84" edge="1">
          <mxGeometry relative="1" as="geometry" />
        </mxCell>
        <mxCell id="Phorr9IZyZ9SOU1izLDo-27" value="&lt;span style=&quot;border-bottom: 1px dotted&quot;&gt;parking lot id&lt;/span&gt;" style="ellipse;whiteSpace=wrap;html=1;align=center;" parent="1" vertex="1">
          <mxGeometry x="450" y="780" width="80" height="30" as="geometry" />
        </mxCell>
        <mxCell id="Phorr9IZyZ9SOU1izLDo-32" style="edgeStyle=orthogonalEdgeStyle;rounded=0;orthogonalLoop=1;jettySize=auto;html=1;exitX=1;exitY=0.5;exitDx=0;exitDy=0;entryX=0;entryY=0.5;entryDx=0;entryDy=0;endArrow=none;endFill=0;" parent="1" source="Phorr9IZyZ9SOU1izLDo-30" target="vKug7fDAOGzfk_ScSwMf-96" edge="1">
          <mxGeometry relative="1" as="geometry" />
        </mxCell>
        <mxCell id="Phorr9IZyZ9SOU1izLDo-30" value="&lt;span style=&quot;border-bottom: 1px dotted&quot;&gt;hotel_branch_id&lt;/span&gt;" style="ellipse;whiteSpace=wrap;html=1;align=center;" parent="1" vertex="1">
          <mxGeometry x="-350" y="160" width="100" height="40" as="geometry" />
        </mxCell>
        <mxCell id="Phorr9IZyZ9SOU1izLDo-34" style="edgeStyle=orthogonalEdgeStyle;rounded=0;orthogonalLoop=1;jettySize=auto;html=1;exitX=1;exitY=0.5;exitDx=0;exitDy=0;entryX=0;entryY=1;entryDx=0;entryDy=0;endArrow=none;endFill=0;" parent="1" source="Phorr9IZyZ9SOU1izLDo-33" target="B9i8zO1DClTU-1D5Rl1U-43" edge="1">
          <mxGeometry relative="1" as="geometry" />
        </mxCell>
        <mxCell id="Phorr9IZyZ9SOU1izLDo-33" value="&lt;span style=&quot;border-bottom: 1px dotted&quot;&gt;housekeeper id&lt;/span&gt;" style="ellipse;whiteSpace=wrap;html=1;align=center;" parent="1" vertex="1">
          <mxGeometry x="595" y="285" width="75" height="35" as="geometry" />
        </mxCell>
        <mxCell id="Phorr9IZyZ9SOU1izLDo-37" style="edgeStyle=orthogonalEdgeStyle;rounded=0;orthogonalLoop=1;jettySize=auto;html=1;exitX=0.5;exitY=0;exitDx=0;exitDy=0;entryX=1;entryY=1;entryDx=0;entryDy=0;endArrow=none;endFill=0;" parent="1" source="Phorr9IZyZ9SOU1izLDo-36" target="511yjethqVCvW-9Xqfhx-35" edge="1">
          <mxGeometry relative="1" as="geometry" />
        </mxCell>
        <mxCell id="Phorr9IZyZ9SOU1izLDo-36" value="total" style="ellipse;whiteSpace=wrap;html=1;align=center;" parent="1" vertex="1">
          <mxGeometry x="1300" y="90" width="100" height="40" as="geometry" />
        </mxCell>
        <mxCell id="Phorr9IZyZ9SOU1izLDo-40" style="edgeStyle=orthogonalEdgeStyle;rounded=0;orthogonalLoop=1;jettySize=auto;html=1;exitX=0;exitY=0.5;exitDx=0;exitDy=0;entryX=1;entryY=0.5;entryDx=0;entryDy=0;endArrow=none;endFill=0;" parent="1" source="Phorr9IZyZ9SOU1izLDo-38" target="JJHZLOXNKfBxK5Ap1BSC-2" edge="1">
          <mxGeometry relative="1" as="geometry" />
        </mxCell>
        <mxCell id="Phorr9IZyZ9SOU1izLDo-38" value="&lt;span style=&quot;border-bottom: 1px dotted&quot;&gt;room id&lt;/span&gt;" style="ellipse;whiteSpace=wrap;html=1;align=center;" parent="1" vertex="1">
          <mxGeometry x="1175" y="340" width="100" height="40" as="geometry" />
        </mxCell>
        <mxCell id="Phorr9IZyZ9SOU1izLDo-42" style="edgeStyle=orthogonalEdgeStyle;rounded=0;orthogonalLoop=1;jettySize=auto;html=1;exitX=0;exitY=0.5;exitDx=0;exitDy=0;entryX=1;entryY=0.5;entryDx=0;entryDy=0;endArrow=none;endFill=0;" parent="1" source="Phorr9IZyZ9SOU1izLDo-41" target="511yjethqVCvW-9Xqfhx-97" edge="1">
          <mxGeometry relative="1" as="geometry" />
        </mxCell>
        <mxCell id="Phorr9IZyZ9SOU1izLDo-41" value="price" style="ellipse;whiteSpace=wrap;html=1;align=center;" parent="1" vertex="1">
          <mxGeometry x="1125" y="-200" width="100" height="40" as="geometry" />
        </mxCell>
        <mxCell id="Phorr9IZyZ9SOU1izLDo-44" value="&lt;span style=&quot;border-bottom: 1px dotted&quot;&gt;hotel branch id&lt;/span&gt;" style="ellipse;whiteSpace=wrap;html=1;align=center;" parent="1" vertex="1">
          <mxGeometry x="830" y="-110" width="80" height="30" as="geometry" />
        </mxCell>
        <mxCell id="Phorr9IZyZ9SOU1izLDo-46" style="edgeStyle=orthogonalEdgeStyle;rounded=0;orthogonalLoop=1;jettySize=auto;html=1;exitX=0.5;exitY=1;exitDx=0;exitDy=0;entryX=0.25;entryY=0;entryDx=0;entryDy=0;endArrow=none;endFill=0;" parent="1" source="Phorr9IZyZ9SOU1izLDo-45" target="511yjethqVCvW-9Xqfhx-19" edge="1">
          <mxGeometry relative="1" as="geometry" />
        </mxCell>
        <mxCell id="Phorr9IZyZ9SOU1izLDo-45" value="&lt;span style=&quot;border-bottom: 1px dotted&quot;&gt;restaurant id&lt;/span&gt;" style="ellipse;whiteSpace=wrap;html=1;align=center;" parent="1" vertex="1">
          <mxGeometry x="650" y="-125" width="100" height="40" as="geometry" />
        </mxCell>
        <mxCell id="Phorr9IZyZ9SOU1izLDo-49" style="edgeStyle=orthogonalEdgeStyle;rounded=0;orthogonalLoop=1;jettySize=auto;html=1;exitX=0.5;exitY=0;exitDx=0;exitDy=0;entryX=0;entryY=1;entryDx=0;entryDy=0;endArrow=none;endFill=0;" parent="1" source="Phorr9IZyZ9SOU1izLDo-47" target="B9i8zO1DClTU-1D5Rl1U-67" edge="1">
          <mxGeometry relative="1" as="geometry" />
        </mxCell>
        <mxCell id="Phorr9IZyZ9SOU1izLDo-47" value="&lt;span style=&quot;border-bottom: 1px dotted&quot;&gt;hotel branch id&lt;/span&gt;" style="ellipse;whiteSpace=wrap;html=1;align=center;" parent="1" vertex="1">
          <mxGeometry x="245" y="510" width="80" height="35" as="geometry" />
        </mxCell>
        <mxCell id="Phorr9IZyZ9SOU1izLDo-50" value="&lt;span style=&quot;border-bottom: 1px dotted&quot;&gt;room id&lt;/span&gt;" style="ellipse;whiteSpace=wrap;html=1;align=center;" parent="1" vertex="1">
          <mxGeometry x="310" y="577.5" width="60" height="25" as="geometry" />
        </mxCell>
        <mxCell id="Phorr9IZyZ9SOU1izLDo-51" style="edgeStyle=orthogonalEdgeStyle;rounded=0;orthogonalLoop=1;jettySize=auto;html=1;exitX=0.5;exitY=0;exitDx=0;exitDy=0;entryX=0.065;entryY=1.036;entryDx=0;entryDy=0;entryPerimeter=0;endArrow=none;endFill=0;" parent="1" source="Phorr9IZyZ9SOU1izLDo-50" target="JJHZLOXNKfBxK5Ap1BSC-14" edge="1">
          <mxGeometry relative="1" as="geometry" />
        </mxCell>
      </root>
    </mxGraphModel>
  </diagram>
</mxfile>
